<?xml version="1.0" encoding="utf-8"?><svg xmlns="http://www.w3.org/2000/svg" xmlns:xlink="http://www.w3.org/1999/xlink"><symbol xmlns="http://www.w3.org/2000/svg" viewBox="0 0 24 24" id="link"><path d="M0 0h24v24H0z" fill="none"/><path d="M3.9 12c0-1.71 1.39-3.1 3.1-3.1h4V7H7c-2.76 0-5 2.24-5 5s2.24 5 5 5h4v-1.9H7c-1.71 0-3.1-1.39-3.1-3.1zM8 13h8v-2H8v2zm9-6h-4v1.9h4c1.71 0 3.1 1.39 3.1 3.1s-1.39 3.1-3.1 3.1h-4V17h4c2.76 0 5-2.24 5-5s-2.24-5-5-5z"/></symbol><symbol viewBox="0 0 18 18" id="arrow-to-right" xmlns="http://www.w3.org/2000/svg"><path d="M11 9l.707.707.707-.707-.707-.707L11 9zM1 8a1 1 0 000 2V8zm3.293-4.293l6 6 1.414-1.414-6-6-1.414 1.414zm6 4.586l-6 6 1.414 1.414 6-6-1.414-1.414zM11 8H1v2h10V8zm5-6v14h2V2h-2z"/></symbol><symbol viewBox="0 0 12 17" id="arrow-up" xmlns="http://www.w3.org/2000/svg"><path d="M11.706 7.706a.995.995 0 01-1.413 0L7 4.417V14a.97.97 0 01-.972.972C5.504 14.972 5 14.553 5 14V4.416l-3.293 3.29A1 1 0 11.293 6.292l5-5a1 1 0 011.414 0l5 5a1 1 0 010 1.414z"/></symbol><symbol viewBox="0 0 20 20" id="at" xmlns="http://www.w3.org/2000/svg"><path d="M9.467.52C7.125.682 5.068 1.58 3.431 3.157A9.457 9.457 0 00.637 11.55c.487 2.93 2.28 5.42 4.93 6.843a9.493 9.493 0 004.974 1.079 9.678 9.678 0 001.676-.242c.363-.09.438-.123.534-.237.161-.192.061-.63-.174-.754-.109-.058-.277-.048-.671.042a8.48 8.48 0 01-4.006-.048c-2.888-.729-5.22-2.976-6.047-5.828-.264-.907-.337-1.441-.334-2.438.002-.812.037-1.149.187-1.817a8.537 8.537 0 013.811-5.368 10.347 10.347 0 011.611-.779 8.608 8.608 0 014.628-.319c2.213.475 4.114 1.785 5.383 3.711a9.091 9.091 0 011.045 2.32c.25.925.315 1.529.315 2.935 0 1.189-.019 1.353-.204 1.737-.154.319-.589.754-.908.908-.562.27-1.212.27-1.774 0-.317-.153-.754-.589-.905-.904-.209-.433-.207-.398-.209-3.074-.003-2.594-.003-2.602-.166-2.723-.113-.084-.383-.111-.546-.055-.179.061-.256.176-.276.414l-.017.197-.338-.336a4.473 4.473 0 00-4.948-.931 4.562 4.562 0 00-2.325 2.325 4.466 4.466 0 00.947 4.962 4.462 4.462 0 005.02.921c.616-.275 1.299-.809 1.683-1.314l.157-.207.139.275c.346.682.96 1.226 1.665 1.472a3.75 3.75 0 001.006.183 3.75 3.75 0 001.006-.183 3.013 3.013 0 001.811-1.812c.171-.49.192-.742.173-2.072-.019-1.252-.05-1.644-.189-2.316a9.388 9.388 0 00-.787-2.3C17.101 2.945 14.394 1.008 11.2.585A13.867 13.867 0 009.467.52m1.35 6.075c1.296.324 2.262 1.295 2.593 2.605.102.406.102 1.194 0 1.6-.333 1.317-1.293 2.277-2.61 2.61-.406.102-1.194.102-1.6 0a3.539 3.539 0 01-1.877-1.161 3.392 3.392 0 01-.812-2.099C6.429 8.4 7.644 6.881 9.388 6.551c.358-.068 1.069-.045 1.429.044" fill-rule="evenodd"/></symbol><symbol viewBox="0 0 17 16" id="bell-circle" xmlns="http://www.w3.org/2000/svg"><path d="M8.103.017C6.56.118 5.26.552 4.037 1.374c-.502.338-.874.65-1.297 1.089C1.562 3.686.85 5.139.575 6.885c-.073.467-.073 1.772 0 2.238.231 1.466.747 2.672 1.637 3.825.269.349.954 1.036 1.319 1.324a8.05 8.05 0 003.93 1.666c.405.058 1.661.057 2.075-.001a8.032 8.032 0 003.951-1.679 10.342 10.342 0 001.365-1.395 8.027 8.027 0 001.495-3.304 8.463 8.463 0 000-3.109 7.95 7.95 0 00-2.074-3.972 7.467 7.467 0 00-1.311-1.104A7.839 7.839 0 009.487.073 10.93 10.93 0 008.103.017m.751 2.846a3.66 3.66 0 012.309 1.101c.327.33.534.619.721 1.009.242.503.308.79.426 1.855.159 1.429.233 1.67.811 2.651.138.234.278.502.31.595.262.755-.156 1.581-.939 1.859-.169.059-.236.064-1.02.074l-.84.011-.035.118c-.098.329-.377.766-.65 1.019-.447.413-.881.59-1.447.59-.566 0-1-.177-1.447-.59-.273-.253-.552-.69-.65-1.019l-.035-.118-.84-.011c-.784-.01-.851-.015-1.02-.074-.783-.278-1.201-1.104-.939-1.859.032-.093.172-.361.31-.595.336-.57.415-.733.541-1.119.127-.387.17-.642.284-1.65.047-.417.115-.876.153-1.023a3.78 3.78 0 01.579-1.267c.169-.241.648-.719.886-.884a3.886 3.886 0 012.121-.699c.055-.002.24.009.411.026m-.921 1.033c-.994.205-1.857 1.022-2.094 1.983a15.17 15.17 0 00-.158 1.119 18.482 18.482 0 01-.16 1.158c-.126.586-.361 1.14-.762 1.805a5.693 5.693 0 00-.232.409.5.5 0 00.225.584c.103.052.241.054 3.748.054s3.645-.002 3.748-.054a.5.5 0 00.225-.584 5.693 5.693 0 00-.232-.409c-.401-.665-.636-1.219-.762-1.805a18.71 18.71 0 01-.159-1.158c-.109-.956-.179-1.292-.329-1.592-.399-.797-1.154-1.374-1.993-1.523a4.411 4.411 0 00-1.065.013m-.481 8.136c0 .053.193.309.32.423.227.204.45.294.728.294.278 0 .501-.09.728-.294.127-.114.32-.37.32-.423 0-.01-.471-.019-1.048-.019-.577 0-1.048.009-1.048.019" fill-rule="evenodd"/></symbol><symbol viewBox="0 0 14 16" id="calendar" xmlns="http://www.w3.org/2000/svg"><path fill-rule="evenodd" clip-rule="evenodd" d="M3.81.067C3.695.16 3.673.3 3.673.94v.586l-1.127.01c-1.084.008-1.133.01-1.302.077-.27.103-.513.269-.712.484a1.963 1.963 0 00-.487.896c-.06.248-.06 11.279 0 11.528.129.543.516 1.046.982 1.275.442.219.006.204 5.975.204 4.444 0 5.435-.007 5.57-.041a1.93 1.93 0 001.232-1.017c.21-.457.196-.006.196-6.185 0-4.6-.007-5.627-.04-5.764a2.04 2.04 0 00-.437-.841 1.947 1.947 0 00-.762-.54c-.169-.065-.219-.068-1.302-.077l-1.127-.01v-.57c-.002-.642-.023-.784-.133-.883-.105-.093-.384-.097-.495-.005-.116.093-.138.233-.138.875v.587H4.439L4.438.958c0-.645-.021-.787-.132-.886C4.2-.02 3.923-.025 3.81.067zm-.137 2.796c0 .766.031.864.29.925a.39.39 0 00.4-.134c.057-.08.062-.132.072-.725l.01-.638h5.12v.572c0 .766.033.864.291.925a.389.389 0 00.4-.134c.057-.08.062-.132.071-.726l.01-.64 1.065.01 1.066.009.17.09c.202.104.424.338.524.55l.072.153.009 1.501.008 1.503H.754L.763 4.6.77 3.1l.073-.153c.127-.27.383-.51.645-.61.08-.031.359-.041 1.146-.044l1.038-.002v.572zm9.569 7.777l-.008 3.774-.085.175a1.126 1.126 0 01-.851.635c-.242.036-10.35.036-10.591 0a1.095 1.095 0 01-.503-.208 1.145 1.145 0 01-.348-.428l-.085-.174-.008-3.774-.008-3.774H13.25l-.008 3.774"/></symbol><symbol viewBox="0 0 17 16" id="check-circle" xmlns="http://www.w3.org/2000/svg"><path fill-rule="evenodd" clip-rule="evenodd" d="M8.5 16a8 8 0 100-16 8 8 0 000 16zm3.94-10.347a.5.5 0 10-.769-.64L8.63 8.664c-.337.405-.558.668-.745.838-.177.16-.262.18-.318.183-.055.002-.142-.01-.332-.154-.202-.152-.446-.394-.818-.767L5.298 7.646a.5.5 0 10-.707.708l1.118 1.118.024.024c.341.341.634.633.897.833.282.213.597.372.982.355.385-.018.684-.205.945-.442.245-.223.51-.54.818-.911l.022-.027 3.043-3.65z"/></symbol><symbol viewBox="0 0 10 8" id="chevron-down" xmlns="http://www.w3.org/2000/svg"><path d="M10 2.09L8.82.91 5 4.731 1.18.911 0 2.09l5 5 5-5z"/></symbol><symbol viewBox="0 0 10 10" id="close" xmlns="http://www.w3.org/2000/svg"><path d="M.898.489a.703.703 0 00-.415.428.405.405 0 00.054.3c.019.032.872.896 1.894 1.92L4.291 5 2.423 6.871C.91 8.386.547 8.758.515 8.825c-.083.177-.039.351.135.525.174.174.348.218.525.135.067-.032.439-.395 1.954-1.908L5 5.709l1.871 1.868C8.386 9.09 8.758 9.453 8.825 9.485c.177.083.351.039.525-.135.174-.174.218-.348.135-.525-.032-.067-.395-.439-1.908-1.954L5.709 5l1.868-1.871C9.09 1.614 9.453 1.242 9.485 1.175 9.568.998 9.524.824 9.35.65 9.229.529 9.125.478 9 .478c-.189 0-.098-.083-2.129 1.945L5 4.291 3.129 2.423C1.687.983 1.241.547 1.183.52A.406.406 0 00.898.489" fill-rule="evenodd"/></symbol><symbol viewBox="0 0 21 20" id="close-circle" xmlns="http://www.w3.org/2000/svg"><path d="M9.678.039C7.521.218 5.368 1.156 3.798 2.6c-.987.908-1.654 1.793-2.223 2.948C.865 6.987.574 8.161.535 9.73c-.042 1.739.259 3.118 1.022 4.673.492 1.003.991 1.715 1.748 2.495.578.596 1.023.97 1.668 1.402 1.441.967 3.113 1.529 4.923 1.656 2.097.147 4.353-.462 6.131-1.656a9.412 9.412 0 001.668-1.402 9.136 9.136 0 001.727-2.446 9.65 9.65 0 001.052-4.459 9.65 9.65 0 00-1.052-4.46c-.517-1.037-1.008-1.717-1.85-2.561-.65-.651-.895-.855-1.579-1.312C14.184.451 11.87-.143 9.678.039m2.012 2.043a8.047 8.047 0 015.539 3.59c.106.162.295.5.42.751.578 1.159.834 2.251.834 3.57 0 .727-.063 1.274-.218 1.907a7.983 7.983 0 01-4.212 5.249c-1.213.596-2.19.822-3.553.822s-2.34-.226-3.552-.822a7.995 7.995 0 01-4.375-6.089c-.074-.534-.074-1.601 0-2.135.365-2.641 2.007-4.927 4.375-6.089.962-.473 1.77-.701 2.905-.819.293-.031 1.485.012 1.837.065M7.183 6.017c-.207.097-.523.406-.629.615a.782.782 0 00-.014.701c.063.14.325.422 1.319 1.417L9.1 9.993l-1.226 1.225c-.977.975-1.245 1.263-1.32 1.415-.183.372-.089.726.285 1.08.343.325.662.399 1.019.235.092-.042.561-.484 1.391-1.309l1.251-1.245 1.251 1.245c.83.825 1.299 1.267 1.392 1.309.356.164.675.09 1.018-.235.374-.354.468-.708.285-1.08-.075-.152-.343-.44-1.32-1.415L11.9 9.993l1.241-1.243c1.347-1.349 1.399-1.415 1.396-1.768-.003-.236-.13-.478-.375-.71-.236-.223-.437-.32-.664-.321-.331-.002-.429.077-1.764 1.409L10.5 8.592 9.249 7.346c-.826-.822-1.299-1.267-1.391-1.31-.208-.095-.493-.103-.675-.019" fill-rule="evenodd"/></symbol><symbol viewBox="0 0 20 19" id="cloud-minus" xmlns="http://www.w3.org/2000/svg"><path d="M9.4.537C6.931.816 4.989 2.665 4.57 5.133l-.059.35-.37.039a4.367 4.367 0 00-1.072.244A4.044 4.044 0 00.551 8.868a4.009 4.009 0 002.103 4.174c.679.351 1.276.476 2.126.447.295-.01.578-.028.628-.041l.092-.022v1.378c0 .762.015 1.472.034 1.585.091.564.283.929.716 1.361.432.433.797.625 1.361.716.275.045 4.503.045 4.778 0 .564-.091.929-.283 1.361-.716.433-.432.625-.797.716-1.361.019-.113.034-.823.034-1.585v-1.378l.092.022c.05.013.333.031.628.041.407.014.62.005.88-.036a3.999 3.999 0 00.831-7.687 4.371 4.371 0 00-1.075-.244l-.372-.039-.027-.183c-.233-1.616-1.088-2.989-2.414-3.875A5.556 5.556 0 009.4.537m1.431 1.047c.912.176 1.68.585 2.34 1.245.698.698 1.095 1.474 1.265 2.47.093.55.142.675.342.881.221.226.425.304.874.332 1.33.083 2.407.959 2.752 2.238.103.382.103 1.118 0 1.5a3.036 3.036 0 01-2.087 2.137c-.275.083-.349.09-.887.093-.656.004-.715-.011-.839-.211-.074-.118-.075-.136-.092-1.836-.019-1.863-.014-1.808-.214-2.149-.121-.207-.427-.476-.671-.59-.202-.095-.264-.106-.775-.139-.315-.021-1.544-.037-2.839-.037s-2.524.016-2.839.037c-.511.033-.573.044-.775.139-.244.114-.55.383-.671.59-.2.341-.195.286-.214 2.149-.023 2.21.049 2.052-.931 2.047-.538-.003-.612-.01-.887-.093a3.036 3.036 0 01-2.087-2.137c-.103-.382-.103-1.118 0-1.5a2.997 2.997 0 012.733-2.236c.376-.023.582-.081.766-.214.273-.198.369-.414.488-1.099A4.34 4.34 0 016.746 2.91 4.477 4.477 0 019.44 1.537c.328-.044 1.046-.02 1.391.047m1.83 7.066c.232.108.581.457.689.689.045.098.098.253.117.345.023.112.032 1.253.025 3.417l-.009 3.249-.077.192a1.665 1.665 0 01-.864.864l-.192.077h-4.7l-.192-.077a1.665 1.665 0 01-.864-.864l-.077-.192-.009-3.249c-.007-2.164.002-3.305.025-3.417.019-.092.072-.247.117-.345.108-.232.457-.581.689-.689l.178-.083h4.966l.178.083M9.27 12.544c-.184.064-.253.189-.253.456 0 .18.015.249.069.323.112.149.237.173.914.173s.802-.024.914-.173c.054-.074.069-.143.069-.323 0-.18-.015-.249-.069-.323-.112-.149-.237-.173-.914-.173-.392 0-.658.014-.73.04" fill-rule="evenodd"/></symbol><symbol viewBox="0 0 14 15" id="comment-line" xmlns="http://www.w3.org/2000/svg"><path d="M4.188.54C3.354.583 2.685.736 2.24.984c-.352.197-.766.569-1.043.938-.42.561-.602 1.197-.66 2.301-.03.586-.03 3.471 0 4.049.072 1.364.343 2.074 1.054 2.755.481.461.985.71 1.696.838.382.068.734.098 1.404.119l.503.016.39.776c.337.671.406.792.513.901.272.277.52.381.903.381s.631-.104.903-.381c.107-.109.176-.23.515-.905l.39-.778.222-.001c.35 0 1.082-.044 1.382-.082.888-.113 1.454-.364 1.997-.884.713-.683.985-1.396 1.054-2.767.03-.592.03-3.426 0-4.013-.045-.872-.151-1.389-.386-1.881-.189-.397-.619-.896-1.025-1.192C11.495.77 10.855.595 9.73.537 9.192.51 4.728.512 4.188.54m5.723.999c.921.069 1.371.234 1.822.665.481.46.655.914.731 1.903.04.511.039 3.751-.001 4.279-.072.963-.225 1.389-.667 1.853-.326.344-.677.533-1.172.632-.361.073-.638.095-1.483.12-.862.026-.922.035-1.033.167a.396.396 0 00-.073.131c-.026.109-.821 1.679-.875 1.729-.037.035-.083.049-.16.049s-.123-.014-.16-.049c-.054-.05-.849-1.62-.875-1.729a.396.396 0 00-.073-.131c-.111-.132-.171-.141-1.033-.167-.845-.025-1.122-.047-1.483-.12-.501-.101-.852-.292-1.187-.646-.414-.439-.582-.903-.649-1.79-.039-.519-.056-2.797-.026-3.677.027-.842.062-1.194.154-1.545.103-.397.24-.64.535-.946.527-.547 1.042-.706 2.429-.75.823-.026 4.862-.009 5.279.022M4.597 4.272c-.186.037-.289.146-.329.35-.056.281.07.54.294.602.127.035 4.745.036 4.871.001.235-.065.359-.32.297-.615a.413.413 0 00-.23-.312c-.078-.037-.269-.04-2.442-.043-1.308-.002-2.403.005-2.461.017M4.57 7.279c-.216.065-.309.206-.308.467.001.198.043.32.137.394.136.106.163.108 1.493.108h1.261l.114-.058c.147-.076.207-.187.219-.404.016-.269-.088-.448-.294-.505-.104-.029-2.528-.03-2.622-.002" fill-rule="evenodd"/></symbol><symbol viewBox="0 0 18 20" id="cube" xmlns="http://www.w3.org/2000/svg"><path d="M8.49.482a2.941 2.941 0 00-.435.159C7.794.765 1.811 4.18 1.493 4.386c-.256.167-.631.54-.757.754a3.097 3.097 0 00-.315.973c-.042.363-.041 7.381 0 7.713.082.651.416 1.242.911 1.613.21.157 6.436 3.726 6.768 3.879.107.049.283.112.39.139.107.028.234.07.282.094.133.069.457.06.631-.017a.773.773 0 01.198-.064c.181 0 .783-.324 3.728-2.007a237.641 237.641 0 003.366-1.943c.498-.34.864-.889.994-1.494.031-.143.039-.995.04-4.042.001-4.229.009-4.032-.178-4.518a2.6 2.6 0 00-.176-.367c-.12-.19-.468-.538-.68-.68-.298-.2-6.557-3.767-6.738-3.84C9.543.412 8.917.371 8.49.482m1.095 1.25c.099.051 1.561.882 3.249 1.846l3.068 1.755-3.41 1.972-3.41 1.972-.093-.045a938.069 938.069 0 01-6.716-3.887c-.027-.027 6.263-3.627 6.438-3.684.079-.026.228-.037.409-.031.25.008.307.02.465.102M5.03 8.336l3.415 1.976.008 3.919c.004 2.155 0 3.919-.008 3.919s-1.428-.807-3.155-1.793c-2.23-1.273-3.185-1.834-3.299-1.937a1.223 1.223 0 01-.372-.712c-.027-.186-.043-7.348-.016-7.348.007 0 1.549.889 3.427 1.976m11.493 2.631l-.008 2.881-.113.229a1.164 1.164 0 01-.245.345c-.108.095-6.274 3.649-6.445 3.715-.049.018-.052-.196-.052-3.894V10.33l3.428-1.983 3.427-1.983.008.861c.004.473.004 2.157 0 3.742" fill-rule="evenodd"/></symbol><symbol viewBox="0 0 16 18" id="database" xmlns="http://www.w3.org/2000/svg"><path d="M7.147.523l-.48.038c-1.314.102-2.602.38-3.594.775C1.619 1.916.738 2.713.545 3.622c-.031.147-.037.651-.038 2.874 0 1.724.009 2.748.027 2.84.018.098.018.147 0 .153-.018.006-.027.785-.027 2.36.001 1.925.007 2.383.038 2.529.249 1.173 1.632 2.144 3.842 2.7.649.163 1.395.283 2.28.367.476.045 2.19.045 2.666 0 1.453-.137 2.605-.388 3.594-.781 1.452-.578 2.335-1.377 2.528-2.286.031-.146.037-.604.038-2.529 0-1.575-.009-2.354-.027-2.36-.018-.006-.018-.055 0-.153.018-.092.027-1.116.027-2.84-.001-2.223-.007-2.727-.038-2.874-.249-1.172-1.636-2.147-3.842-2.7a15.23 15.23 0 00-2.24-.363C9.081.531 7.375.503 7.147.523m1.64.997c2.762.146 5.072 1 5.601 2.071.092.187.101.223.099.414-.003.296-.12.528-.415.823-1.465 1.465-5.735 2.101-9.128 1.359-1.7-.372-2.972-1.049-3.33-1.774a.715.715 0 01-.101-.408c-.002-.191.007-.227.099-.414.18-.365.596-.728 1.19-1.04 1.438-.755 3.73-1.15 5.985-1.031m5.714 6.24c-.009 1.607.004 1.506-.223 1.829-.628.894-2.428 1.587-4.785 1.843-.629.068-2.357.068-2.986 0-2.357-.256-4.157-.949-4.785-1.843-.229-.327-.214-.189-.223-2.089a64.526 64.526 0 01.004-1.687c.007 0 .146.09.309.2 1.113.752 2.738 1.232 4.855 1.432.476.045 2.19.045 2.666 0 1.771-.168 3.113-.506 4.236-1.07.305-.152.86-.502.903-.569.032-.048.038.372.029 1.954M1.867 11.05c1.215.816 3.254 1.345 5.5 1.427 2.103.078 4.066-.217 5.656-.849a7.084 7.084 0 001.425-.792l.061-.044-.008 1.704-.008 1.704-.103.207c-.366.733-1.629 1.407-3.334 1.78-1.9.415-4.212.415-6.112 0-1.706-.373-2.968-1.046-3.334-1.78l-.103-.207-.008-1.704-.008-1.704.061.044.315.214" fill-rule="evenodd"/></symbol><symbol viewBox="0 0 15 15" id="dot-line" xmlns="http://www.w3.org/2000/svg"><path d="M7.5 12.5a4.5 4.5 0 100-9 4.5 4.5 0 000 9z"/><path d="M14.5 7.5H.5v1h14v-1z"/></symbol><symbol viewBox="0 0 80 80" id="error" xmlns="http://www.w3.org/2000/svg"><path d="M36 7.257C24.901 8.668 15.336 15.464 10.466 25.4c-1.599 3.263-2.545 6.223-3.09 9.671-.343 2.171-.343 7.687 0 9.858.546 3.454 1.493 6.417 3.092 9.671 6.527 13.282 21.035 20.506 35.719 17.785 5.315-.985 10.7-3.528 14.883-7.029 9.252-7.742 13.52-19.641 11.315-31.543-1.637-8.833-7.131-16.869-14.882-21.767-1.462-.923-4.486-2.403-6.217-3.042-1.639-.605-4.38-1.313-6.219-1.606-1.893-.302-7.156-.383-9.067-.141m5.851 5.811c13.422.917 24.176 11.658 25.077 25.047 1.103 16.409-12.404 29.916-28.813 28.813-13.372-.9-24.143-11.671-25.043-25.043-.681-10.139 4.22-19.612 12.928-24.986 2.416-1.491 5.934-2.847 8.902-3.43 1.269-.249 2.071-.336 4.765-.514.146-.01 1.129.041 2.184.113M30 30.067l-2.064 2.067 3.931 3.933L35.798 40l-3.931 3.933-3.932 3.934 2.099 2.099 2.099 2.099 3.934-3.932L40 44.202l3.933 3.931 3.934 3.932 2.099-2.099 2.099-2.099-3.932-3.934L44.202 40l3.931-3.933 3.932-3.934-2.099-2.099-2.099-2.099-3.934 3.932L40 35.798l-3.901-3.899C33.954 29.755 32.168 28 32.131 28c-.037 0-.996.93-2.131 2.067" fill-rule="evenodd"/></symbol><symbol viewBox="0 0 19 18" id="eye" xmlns="http://www.w3.org/2000/svg"><path fill-rule="evenodd" clip-rule="evenodd" d="M18.27 9c0-.359-.194-.594-.582-1.066C16.268 6.21 13.136 3 9.5 3 5.864 3 2.732 6.21 1.312 7.934.924 8.406.73 8.641.73 9c0 .359.194.594.582 1.066C2.732 11.79 5.864 15 9.5 15c3.636 0 6.768-3.21 8.188-4.934.388-.472.582-.707.582-1.066zM9.5 12a3 3 0 100-6 3 3 0 000 6z"/></symbol><symbol viewBox="0 0 16 17" id="filter" xmlns="http://www.w3.org/2000/svg"><path d="M1 .5c-.552 0-1 .429-1 .958v1.915h16V1.458c0-.53-.448-.958-1-.958H1zm14.782 4.789H.218c.114.215.271.41.465.572l6 5.029c.754.632 1.88.632 2.634 0l6-5.029a1.93 1.93 0 00.465-.572z"/><path d="M10 14.584V8.162H6V16.5l4-1.916z"/></symbol><symbol viewBox="0 0 16 17" id="history" xmlns="http://www.w3.org/2000/svg"><g clip-path="url(#ara)"><path d="M7.999 5.5l-.001 3.498a.5.5 0 00.146.354l2.502 2.502.707-.707L8.998 8.79l.001-3.29h-1z"/><path d="M9 1.5c-3.52 0-6.432 2.614-6.92 6H0L2.5 10 5 7.5H3.09c.479-2.833 2.943-5 5.91-5 3.309 0 6 2.691 6 6s-2.691 6-6 6a5.969 5.969 0 01-4.731-2.31l-.789.616A6.963 6.963 0 009 15.5c3.86 0 7-3.14 7-7s-3.14-7-7-7z"/></g><defs><clipPath id="ara"><path transform="translate(0 .5)" d="M0 0h16v16H0z"/></clipPath></defs></symbol><symbol viewBox="0 0 16 18" id="layer-group" xmlns="http://www.w3.org/2000/svg"><path d="M4.286 2.05C1.755 3.136.669 3.614.613 3.667c-.116.111-.147.229-.107.406.068.303-.196.172 3.799 1.884C7.131 7.168 7.912 7.493 8 7.493c.088 0 .87-.325 3.7-1.538 2.383-1.021 3.618-1.564 3.676-1.615.124-.108.159-.231.118-.413-.068-.303.196-.172-3.799-1.884C8.764.787 8.09.507 7.996.507c-.093.001-.834.309-3.71 1.543m6.574.717c1.566.671 2.847 1.226 2.847 1.233 0 .007-1.284.564-2.854 1.236L8 6.459 5.147 5.236A195.567 195.567 0 012.293 4c0-.015 5.65-2.446 5.694-2.451.014-.001 1.307.547 2.873 1.218M2.167 7.956c-.795.342-1.472.645-1.504.673A.583.583 0 00.508 9c0 .134.077.307.169.379.038.031 1.674.743 3.635 1.583C7.294 12.24 7.898 12.49 8 12.49c.102 0 .706-.25 3.688-1.528 1.961-.84 3.597-1.552 3.635-1.583A.545.545 0 0015.492 9a.549.549 0 00-.168-.379c-.074-.058-2.921-1.288-2.982-1.288-.019 0-.309.117-.644.26-.401.172-.596.268-.573.282.019.013.603.266 1.297.563.694.297 1.261.55 1.261.562 0 .025-5.624 2.44-5.683 2.44-.059 0-5.683-2.415-5.683-2.44 0-.012.567-.265 1.261-.562.694-.297 1.278-.55 1.297-.563.023-.014-.172-.11-.573-.282a8.373 8.373 0 00-.649-.259c-.022.001-.69.281-1.486.622m.022 4.991c-.949.408-1.478.65-1.53.699a.48.48 0 00-.013.693c.118.123 7.186 3.154 7.354 3.154.168 0 7.236-3.031 7.354-3.154a.48.48 0 00-.013-.693c-.052-.049-.58-.289-1.541-.701l-1.462-.627-.603.257c-.331.142-.61.265-.621.275-.011.01.568.27 1.287.577.718.307 1.306.565 1.306.573 0 .007-1.284.564-2.854 1.236L8 16.459l-2.853-1.223A195.567 195.567 0 012.293 14c0-.008.588-.266 1.306-.573.719-.307 1.298-.567 1.287-.577a27.637 27.637 0 00-1.206-.519c-.022-.005-.693.272-1.491.616" fill-rule="evenodd"/></symbol><symbol viewBox="0 0 19 19" id="message-plus" xmlns="http://www.w3.org/2000/svg"><path d="M14.734.558c-.22.109-.214.067-.224 1.587l-.009 1.37h-1.346c-1.487 0-1.481-.001-1.587.198-.081.152-.076.468.008.583.147.2.149.201 1.605.201h1.322v1.322c0 1.456.001 1.458.201 1.605.116.085.431.089.586.006.192-.102.195-.128.195-1.601v-1.33l1.37-.009c1.26-.008 1.376-.014 1.454-.066.243-.166.247-.678.006-.835-.081-.053-.2-.059-1.451-.074l-1.363-.016-.016-1.363C15.47.885 15.464.766 15.411.685c-.11-.169-.459-.234-.677-.127M5.668 3.551c-1.003.051-1.955.211-2.511.422C2.032 4.398 1.251 5.241.889 6.42.545 7.538.498 8.429.513 13.522c.011 3.385.015 3.671.067 3.847.177.6.451.874 1.051 1.051.176.052.462.056 3.847.067 4.218.012 5.178-.014 6.186-.169 1.136-.176 1.901-.527 2.534-1.165.498-.503.819-1.116 1.012-1.937.191-.813.243-1.488.265-3.444l.018-1.639h-.99v1.022c0 2.277-.112 3.496-.395 4.287a2.52 2.52 0 01-.647 1.028c-.63.63-1.358.862-3.09.984-.847.06-8.302.059-8.503-.001-.193-.057-.272-.139-.322-.333-.059-.23-.059-7.651 0-8.491.123-1.749.354-2.465 1-3.103.34-.336.614-.502 1.096-.662.789-.263 1.963-.366 4.172-.367h1.053v-.982l-1.338.005c-.736.002-1.573.016-1.861.031m-.97 5.028c-.134.082-.217.299-.19.499.024.172.081.271.201.35.08.053.288.057 3.238.065 3.592.01 3.375.025 3.492-.239.116-.264.038-.59-.169-.696-.059-.03-.799-.039-3.274-.039-3.094 0-3.202.002-3.298.06m.027 3.982c-.144.071-.21.208-.21.438 0 .233.067.369.215.439.096.046.297.052 1.76.052 1.822 0 1.812.001 1.933-.196.088-.144.088-.445 0-.59-.121-.197-.111-.196-1.938-.195-1.465.001-1.668.007-1.76.052" fill-rule="evenodd"/></symbol><symbol viewBox="0 0 18 18" id="pen" xmlns="http://www.w3.org/2000/svg"><path fill-rule="evenodd" clip-rule="evenodd" d="M14.204 7.796L16 6c.545-.545.818-.818.964-1.112a2 2 0 000-1.776C16.818 2.818 16.545 2.545 16 2c-.545-.545-.818-.818-1.112-.964a2 2 0 00-1.776 0c-.294.146-.567.419-1.112.964l-1.819 1.819a10.9 10.9 0 004.023 3.977zM8.727 5.273l-6.87 6.87c-.426.426-.638.638-.778.9-.14.26-.199.555-.317 1.145l-.615 3.077c-.066.332-.1.498-.005.593.095.095.26.061.593-.005l3.077-.616c.59-.117.885-.176 1.146-.316.26-.14.473-.352.898-.777l6.89-6.89a12.902 12.902 0 01-4.02-3.981z"/></symbol><symbol viewBox="0 0 19 18" id="plus-circle" xmlns="http://www.w3.org/2000/svg"><g clip-path="url(#ava)"><path d="M9.5 0c-4.99 0-9 4.01-9 9s4.01 9 9 9 9-4.01 9-9-4.01-9-9-9zm4.91 9.41c0 .245-.165.408-.41.408h-3.477c-.123 0-.205.082-.205.205V13.5c0 .245-.163.41-.409.41h-.818c-.246 0-.41-.165-.41-.41v-3.477c0-.123-.081-.205-.204-.205H5c-.245 0-.41-.163-.41-.409v-.818c0-.246.165-.41.41-.41h3.477c.123 0 .205-.081.205-.204V4.5c0-.245.163-.41.409-.41h.818c.245 0 .41.165.41.41v3.477c0 .123.081.205.204.205H14c.245 0 .41.163.41.409v.818z"/></g><defs><clipPath id="ava"><path transform="translate(.5)" d="M0 0h18v18H0z"/></clipPath></defs></symbol><symbol viewBox="0 0 14 14" id="sad" xmlns="http://www.w3.org/2000/svg"><path d="M7 0C3.133 0 0 3.133 0 7s3.133 7 7 7 7-3.133 7-7-3.133-7-7-7zm0 12.645A5.65 5.65 0 011.355 7 5.65 5.65 0 017 1.355 5.65 5.65 0 0112.645 7 5.65 5.65 0 017 12.645zM4.742 6.548a.902.902 0 100-1.806.902.902 0 100 1.806zm4.516-1.806a.902.902 0 100 1.806.902.902 0 100-1.806zM7 8.355c-1.135 0-2.202.5-2.93 1.372a.677.677 0 101.042.866 2.456 2.456 0 013.776 0 .68.68 0 00.954.088.68.68 0 00.088-.954A3.806 3.806 0 007 8.355z"/></symbol><symbol viewBox="0 0 17 16" id="sad-2" xmlns="http://www.w3.org/2000/svg"><path d="M7.763 1.052a7.422 7.422 0 00-2.549.78 6.994 6.994 0 00-2.976 3.084c-.503 1.023-.714 1.937-.715 3.088-.001 1.147.213 2.071.715 3.088a6.534 6.534 0 001.304 1.829c.377.38.64.598 1.067.887a6.995 6.995 0 007.782 0c.427-.289.69-.507 1.067-.887a6.534 6.534 0 001.304-1.829c.502-1.017.715-1.937.715-3.088 0-1.15-.213-2.071-.715-3.088a6.534 6.534 0 00-1.304-1.829 6.782 6.782 0 00-2.199-1.504 7.311 7.311 0 00-2.063-.533 9.791 9.791 0 00-1.433.002M9.35 2.058a6.043 6.043 0 012.833 1.201 6.025 6.025 0 012.279 4.023c.38 3.267-1.863 6.187-5.126 6.674a7.478 7.478 0 01-1.672-.001 5.743 5.743 0 01-1.785-.552c-1.76-.858-2.947-2.434-3.307-4.393-.087-.473-.087-1.538 0-2.012.31-1.687 1.237-3.098 2.644-4.023a7.42 7.42 0 011.244-.624 6.074 6.074 0 012.89-.293M6.004 6.202a.776.776 0 00-.445.301c-.166.251-.184.535-.047.768.075.129.316.358.446.426.247.128.634.161.887.076.326-.109.631-.392.71-.658a.742.742 0 00-.382-.845c-.151-.074-.181-.078-.613-.084-.25-.003-.5.004-.556.016m4.004.003c-.394.083-.664.498-.572.881.064.266.372.567.695.678.275.095.652.067.911-.067.131-.068.371-.298.448-.428.201-.344.049-.817-.321-.999-.154-.075-.183-.079-.601-.085a4.274 4.274 0 00-.56.02m-2.273 4.154c-.812.039-1.533.117-1.804.196-.28.081-.383.266-.319.574a.448.448 0 00.14.268c.094.094.123.106.244.106.076 0 .24-.018.365-.039.514-.09.995-.116 2.139-.116 1.144 0 1.625.026 2.139.116.125.021.289.039.365.039.121 0 .15-.012.244-.106a.448.448 0 00.14-.268c.064-.306-.038-.492-.315-.574-.175-.052-.652-.118-1.128-.156a34.959 34.959 0 00-2.21-.04" fill-rule="evenodd"/></symbol><symbol viewBox="0 0 16 16" id="search" xmlns="http://www.w3.org/2000/svg"><path d="M15.489 14.573l-3.808-3.96a6.44 6.44 0 001.515-4.153A6.467 6.467 0 006.736 0a6.467 6.467 0 00-6.46 6.46 6.467 6.467 0 006.46 6.46 6.39 6.39 0 003.701-1.169l3.837 3.99c.16.167.376.259.608.259a.844.844 0 00.607-1.427zM6.736 1.685a4.78 4.78 0 014.775 4.775 4.78 4.78 0 01-4.775 4.775A4.78 4.78 0 011.962 6.46a4.78 4.78 0 014.774-4.775z"/></symbol><symbol viewBox="0 0 24 24" id="setting" xmlns="http://www.w3.org/2000/svg"><path fill-rule="evenodd" clip-rule="evenodd" d="M13.984 2.542c.087.169.109.386.152.82.082.82.123 1.23.295 1.456a1 1 0 00.929.384c.28-.037.6-.298 1.238-.82.337-.277.506-.415.687-.473a1 1 0 01.702.035c.175.076.33.23.637.538l.894.894c.308.308.462.462.538.637a1 1 0 01.035.702c-.058.181-.196.35-.472.687-.523.639-.784.958-.822 1.239a1 1 0 00.385.928c.225.172.636.213 1.457.295.433.043.65.065.82.152a1 1 0 01.47.521c.071.177.071.395.071.831v1.264c0 .436 0 .654-.07.83a1 1 0 01-.472.522c-.169.087-.386.109-.82.152-.82.082-1.23.123-1.456.295a1 1 0 00-.384.929c.038.28.299.6.821 1.238.276.337.414.505.472.687a1 1 0 01-.035.702c-.076.175-.23.329-.538.637l-.894.893c-.308.309-.462.463-.637.538a1 1 0 01-.702.035c-.181-.058-.35-.196-.687-.472-.639-.522-.958-.783-1.238-.82a1 1 0 00-.929.384c-.172.225-.213.635-.295 1.456-.043.434-.065.651-.152.82a1 1 0 01-.521.472c-.177.07-.395.07-.831.07h-1.264c-.436 0-.654 0-.83-.07a1 1 0 01-.522-.472c-.087-.169-.109-.386-.152-.82-.082-.82-.123-1.23-.295-1.456a1 1 0 00-.928-.384c-.281.037-.6.298-1.239.82-.337.277-.506.415-.687.473a1 1 0 01-.702-.035c-.175-.076-.33-.23-.637-.538l-.894-.894c-.308-.308-.462-.462-.538-.637a1 1 0 01-.035-.702c.058-.181.196-.35.472-.687.523-.639.784-.958.821-1.239a1 1 0 00-.384-.928c-.225-.172-.636-.213-1.457-.295-.433-.043-.65-.065-.82-.152a1 1 0 01-.47-.521C2 13.286 2 13.068 2 12.632v-1.264c0-.436 0-.654.07-.83a1 1 0 01.472-.522c.169-.087.386-.109.82-.152.82-.082 1.231-.123 1.456-.295a1 1 0 00.385-.928c-.038-.281-.3-.6-.822-1.24-.276-.337-.414-.505-.472-.687a1 1 0 01.035-.702c.076-.174.23-.329.538-.637l.894-.893c.308-.308.462-.463.637-.538a1 1 0 01.702-.035c.181.058.35.196.687.472.639.522.958.783 1.238.821a1 1 0 00.93-.385c.17-.225.212-.635.294-1.456.043-.433.065-.65.152-.82a1 1 0 01.521-.471c.177-.07.395-.07.831-.07h1.264c.436 0 .654 0 .83.07a1 1 0 01.522.472zM12 16a4 4 0 100-8 4 4 0 000 8z"/><path d="M14.136 3.361l.597-.06-.597.06zm-.152-.82l-.534.276.534-.275zm.447 2.277l.477-.364-.477.364zm.929.384l-.08-.594.08.594zm1.238-.82l.38.464-.38-.465zm.687-.473l.183.572-.183-.572zm.702.035l.239-.55-.239.55zm.637.538l-.424.424.424-.424zm.894.894l.424-.425-.424.425zm.538.637l.55-.239-.55.239zm.035.702l.571.182-.571-.182zm-.472.687l-.465-.38.465.38zm-.822 1.239l-.594-.08.595.08zm.385.928l-.364.477.364-.477zm1.457.295l.06-.597-.06.597zm.82.152l.274-.533-.275.533zm.47.521l.559-.22-.558.22zm.001 2.926l-.558-.22.558.22zm-.472.52l.275.534-.275-.533zm-.82.153l-.06-.597-.019.002-.019.003.099.592zm0 0l.06.597.02-.002.02-.003-.1-.592zm-1.456.295l-.363-.477.364.477zm-.384.929l-.595.08.595-.08zm.821 1.238l-.464.38.464-.38zm.472.687l-.572.182.572-.182zm-.035.702l-.55-.239.55.239zm-.538.637l.424.424-.424-.424zm-.894.893l-.424-.424.424.424zm-.637.538l.239.55-.239-.55zm-.702.035l-.182.572.182-.572zm-.687-.472l.38-.464-.005-.004-.375.468zm0 0l-.38.465.005.004.375-.469zm-1.238-.82l.08-.596-.08.595zm-.929.384l.477.364-.477-.364zm-.295 1.456l-.597-.06.597.06zm-.152.82l-.534-.275.534.276zm-.521.472l-.22-.558.22.558zm-2.926 0l.22-.558-.22.558zm-.52-.472l.533-.275-.534.275zm-.153-.82l-.597.06.597-.06zm-.295-1.456l-.477.364.477-.364zm-.928-.384l-.08-.595.08.595zm-1.239.82l-.38-.463-.01.007-.009.008.4.449zm0 0l.38.465.01-.007.009-.009-.399-.448zm-.687.473l.182.571-.182-.571zm-.702-.035l-.239.55.239-.55zm-.637-.538l.424-.425-.424.425zm-.894-.894l-.424.425.424-.425zm-.538-.637l.55-.238-.55.238zm-.035-.702l.572.183-.572-.183zm.472-.687l.464.38-.464-.38zm.821-1.239l.595.08-.595-.08zm-.384-.928l.364-.477-.364.477zm-1.457-.295l-.06.597.06-.597zm-.82-.152l.276-.534-.275.534zm-.47-.521l-.559.22.558-.22zm0-2.926l-.559-.22.558.22zm.47-.52l-.275-.534.276.533zm.82-.153v-.6h-.03l-.03.003.06.597zm0 0v.6h.03l.03-.003-.06-.597zm1.457-.295l-.364-.477.364.477zm.385-.928l.595-.08-.595.08zM4.38 7.4l.465-.38-.465.38zm-.472-.687l.572-.182-.572.182zm.035-.702l-.55-.238.55.238zm.538-.637l.425.424-.425-.424zm.894-.893l-.425-.425.425.425zm.637-.538l-.239-.55.239.55zm.702-.035l.182-.572-.182.572zm.687.472l.38-.465-.38.465zm1.238.821l.08-.595-.08.595zm.93-.385l-.478-.363.477.363zm.294-1.456l.597.06-.597-.06zm.152-.82l-.533-.274.533.275zm.521-.471l.221.558-.22-.558zm2.926 0l.22-.558-.22.558zm1.27 1.232a8.08 8.08 0 00-.065-.549 1.624 1.624 0 00-.151-.486l-1.066.55a.489.489 0 01.034.135c.017.105.032.244.054.47l1.194-.12zm.175 1.152c.004.005-.03-.037-.067-.247a13.25 13.25 0 01-.108-.905l-1.194.12c.04.4.073.735.12.997.047.257.12.533.295.763l.954-.728zm.372.154a.4.4 0 01-.372-.154l-.954.728a1.6 1.6 0 001.485.615l-.16-1.19zm.938-.691a13.26 13.26 0 01-.716.564c-.176.122-.228.128-.223.127l.16 1.19c.287-.04.534-.183.748-.332.219-.152.48-.366.79-.62l-.76-.93zm.885-.58a1.624 1.624 0 00-.451.238 8.36 8.36 0 00-.434.342l.76.929a7.59 7.59 0 01.37-.294.486.486 0 01.12-.071l-.365-1.143zm1.123.057a1.6 1.6 0 00-1.123-.056l.365 1.143a.4.4 0 01.28.014l.478-1.101zm.823.664a9.34 9.34 0 00-.398-.384 1.625 1.625 0 00-.425-.28l-.477 1.1a.487.487 0 01.112.084c.08.07.18.169.339.328l.849-.848zm.893.893l-.893-.893-.849.848.893.894.849-.849zm.664.823a1.623 1.623 0 00-.28-.425 9.34 9.34 0 00-.384-.398l-.849.849c.16.16.26.259.33.34a.466.466 0 01.082.111l1.101-.477zm.056 1.123a1.6 1.6 0 00-.056-1.123l-1.1.477a.4.4 0 01.013.281l1.143.365zm-.579.885a8.36 8.36 0 00.342-.434c.094-.132.182-.277.237-.45l-1.143-.366a.483.483 0 01-.071.12 7.59 7.59 0 01-.294.37l.93.76zm-.69.939c-.002.005.004-.048.126-.223.119-.17.297-.389.564-.716l-.928-.76c-.255.312-.47.572-.621.791-.149.214-.293.461-.331.748l1.19.16zm.153.37a.4.4 0 01-.154-.37l-1.19-.16a1.6 1.6 0 00.616 1.485l.728-.954zm1.152.176c-.42-.042-.7-.07-.905-.107-.21-.038-.252-.072-.247-.068l-.728.954c.23.175.506.248.763.295.262.047.598.08.998.12l.12-1.194zm1.035.216a1.623 1.623 0 00-.486-.151c-.154-.026-.34-.044-.549-.065l-.12 1.194c.226.022.365.037.47.054.1.017.128.03.135.034l.55-1.066zm.755.834a1.6 1.6 0 00-.755-.834l-.55 1.066a.4.4 0 01.189.209l1.116-.441zm.112 1.051c0-.21 0-.396-.01-.552a1.624 1.624 0 00-.102-.5l-1.116.442a.49.49 0 01.02.138c.008.106.008.246.008.472h1.2zm0 1.264v-1.264h-1.2v1.264h1.2zm-.112 1.051c.067-.17.091-.337.102-.499.01-.155.01-.342.01-.552h-1.2c0 .226 0 .366-.007.472a.487.487 0 01-.021.138l1.116.441zm-.755.834a1.6 1.6 0 00.755-.834l-1.116-.44a.4.4 0 01-.189.207l.55 1.067zm-1.035.216c.21-.02.395-.039.549-.065.16-.027.324-.067.486-.15l-.55-1.068a.487.487 0 01-.135.035 7.969 7.969 0 01-.47.054l.12 1.194zm.04-.005l-.198-1.184.197 1.184zm-1.192.18c-.004.004.037-.03.248-.068.204-.036.484-.065.904-.107l-.12-1.194c-.4.04-.735.073-.997.12-.256.046-.532.12-.762.295l.727.954zm-.154.372a.4.4 0 01.154-.372l-.727-.954a1.6 1.6 0 00-.616 1.486l1.19-.16zm.691.938a13.173 13.173 0 01-.563-.716c-.122-.175-.128-.228-.128-.223l-1.189.16c.039.287.183.534.331.748.152.218.366.48.62.79l.93-.76zm.58.884a1.625 1.625 0 00-.238-.45c-.09-.128-.209-.272-.342-.434l-.928.76c.143.174.231.283.293.37a.492.492 0 01.071.12l1.143-.366zm-.057 1.124a1.6 1.6 0 00.056-1.124l-1.143.365a.4.4 0 01-.014.281l1.101.478zm-.664.822c.149-.148.28-.28.384-.398a1.61 1.61 0 00.28-.424l-1.1-.478a.489.489 0 01-.084.112c-.07.08-.169.18-.328.34l.848.848zm-.893.894l.893-.894-.848-.848-.894.893.849.849zm-.823.664c.167-.073.303-.174.425-.28.117-.104.25-.236.398-.384l-.849-.849c-.16.16-.259.259-.34.329a.485.485 0 01-.111.083l.477 1.1zm-1.123.056a1.6 1.6 0 001.123-.056l-.477-1.101a.4.4 0 01-.281.014l-.365 1.143zm-.885-.58c.163.134.307.252.434.343.132.094.277.181.45.237l.366-1.143a.49.49 0 01-.12-.071 7.992 7.992 0 01-.37-.294l-.76.929zm.005.005l.75-.937-.75.937zm-.943-.695c-.006-.001.047.005.222.127.17.118.389.296.716.564l.76-.929c-.312-.255-.572-.469-.791-.62-.214-.15-.46-.293-.748-.332l-.16 1.19zm-.372.154a.4.4 0 01.372-.154l.16-1.19a1.6 1.6 0 00-1.486.616l.954.727zm-.175 1.152c.042-.42.07-.7.107-.905.038-.21.072-.252.068-.247l-.954-.728c-.175.23-.248.506-.295.762-.047.262-.08.598-.12.999l1.194.119zm-.216 1.036c.084-.163.124-.327.151-.487.026-.154.044-.34.065-.549l-1.194-.12a7.9 7.9 0 01-.054.47.49.49 0 01-.034.135l1.066.55zm-.833.754a1.6 1.6 0 00.833-.754l-1.066-.55a.4.4 0 01-.209.188l.441 1.116zm-1.052.112c.21 0 .396 0 .552-.01.162-.01.33-.035.5-.102l-.442-1.116a.49.49 0 01-.138.02 8.012 8.012 0 01-.472.008v1.2zm-1.264 0h1.264v-1.2h-1.264v1.2zm-1.051-.112c.17.067.337.091.499.102.155.01.342.01.552.01v-1.2c-.226 0-.366 0-.472-.007a.49.49 0 01-.138-.021l-.441 1.116zm-.834-.755a1.6 1.6 0 00.834.755l.44-1.116a.4.4 0 01-.207-.189l-1.067.55zm-.216-1.035c.02.21.039.395.065.549.027.16.067.324.151.486l1.066-.55a.49.49 0 01-.034-.135 7.992 7.992 0 01-.054-.47l-1.194.12zm-.175-1.152c-.004-.005.03.037.068.247.036.205.065.485.107.905l1.194-.12c-.04-.4-.073-.735-.12-.997-.047-.257-.12-.533-.295-.763l-.954.728zm-.371-.154a.4.4 0 01.37.154l.955-.728a1.6 1.6 0 00-1.485-.615l.16 1.19zm-.939.691c.327-.267.545-.445.716-.564.175-.122.228-.128.223-.127l-.16-1.19c-.287.04-.534.183-.748.332-.219.152-.48.366-.79.62l.759.93zm.019-.016l-.798-.897.798.897zm-.904.595a1.61 1.61 0 00.451-.237 8.36 8.36 0 00.434-.342l-.76-.928a7.982 7.982 0 01-.37.293.49.49 0 01-.12.071l.365 1.143zm-1.123-.056a1.6 1.6 0 001.123.056l-.365-1.143a.4.4 0 01-.28-.014l-.478 1.101zm-.823-.664c.149.148.28.28.398.384.122.106.258.208.425.28l.477-1.1a.49.49 0 01-.112-.084 7.95 7.95 0 01-.34-.329l-.848.85zm-.893-.893l.893.893.849-.849-.894-.893-.848.849zm-.664-.823c.072.167.174.303.28.425.103.117.235.25.384.398l.848-.849a7.919 7.919 0 01-.328-.34.487.487 0 01-.083-.111l-1.101.477zm-.056-1.123a1.6 1.6 0 00.056 1.123l1.1-.477a.4.4 0 01-.013-.281l-1.143-.365zm.579-.885a8.36 8.36 0 00-.342.434 1.625 1.625 0 00-.237.45l1.143.366a.488.488 0 01.071-.12c.062-.087.15-.195.293-.37l-.928-.76zm.69-.938c.002-.006-.004.046-.126.222-.119.17-.297.389-.564.716l.928.76c.255-.312.47-.572.621-.791.149-.214.293-.461.331-.748l-1.19-.16zm-.153-.372a.4.4 0 01.154.372l1.19.16a1.6 1.6 0 00-.616-1.486l-.728.954zm-1.152-.175c.42.042.7.07.905.107.21.038.252.072.247.068l.728-.954c-.23-.175-.506-.248-.763-.295-.262-.047-.597-.08-.998-.12l-.12 1.194zm-1.035-.216c.162.084.326.124.486.151.154.026.34.044.549.065l.12-1.194a7.985 7.985 0 01-.47-.054.489.489 0 01-.135-.034l-.55 1.066zm-.755-.834c.142.36.41.656.755.834l.55-1.066a.4.4 0 01-.189-.209l-1.116.441zm-.111-1.05c0 .21 0 .396.01.552.01.162.035.33.102.5l1.116-.442a.488.488 0 01-.02-.138 7.99 7.99 0 01-.008-.472H1.4zm0-1.264v1.264h1.2v-1.264H1.4zm.112-1.051c-.067.17-.091.337-.102.499-.01.155-.01.342-.01.552h1.2c0-.226 0-.366.007-.472.007-.1.018-.13.021-.138l-1.116-.441zm.754-.834a1.6 1.6 0 00-.754.834l1.116.44a.4.4 0 01.189-.207l-.55-1.067zm1.036-.216a8.08 8.08 0 00-.549.065c-.16.027-.324.067-.487.151l.55 1.066a.489.489 0 01.136-.034 7.9 7.9 0 01.47-.054l-.12-1.194zm.06-.003v1.2-1.2zm0 0v1.2-1.2zm1.092-.172c.005-.004-.036.03-.247.067-.205.037-.485.066-.905.108l.12 1.194c.4-.04.736-.073.998-.12.256-.047.532-.12.762-.295l-.728-.954zm.154-.371a.4.4 0 01-.154.37l.728.955a1.6 1.6 0 00.616-1.485l-1.19.16zm-.691-.94c.268.328.445.546.564.717.122.175.128.228.127.223l1.19-.16c-.039-.287-.183-.534-.331-.748-.152-.219-.366-.48-.621-.791l-.93.76zm-.58-.884c.056.173.144.319.238.45.09.128.209.272.342.435l.929-.76a8 8 0 01-.294-.37.488.488 0 01-.071-.12l-1.143.365zm.057-1.123a1.6 1.6 0 00-.056 1.123l1.143-.365a.4.4 0 01.014-.281l-1.101-.477zm.664-.823c-.148.148-.28.28-.384.398a1.624 1.624 0 00-.28.425l1.1.477a.488.488 0 01.084-.112c.07-.08.169-.18.329-.34l-.849-.848zm.893-.893l-.893.893.849.848.893-.893-.849-.848zm0 0l.849.848-.849-.848zm.823-.665a1.624 1.624 0 00-.425.281 8.76 8.76 0 00-.398.384l.849.848c.16-.16.259-.259.34-.329a.488.488 0 01.111-.083l-.477-1.1zm1.123-.056a1.6 1.6 0 00-1.123.056l.477 1.101a.4.4 0 01.281-.014l.365-1.143zm.885.58a8.433 8.433 0 00-.434-.343 1.624 1.624 0 00-.45-.237L6.531 4.48a.488.488 0 01.12.072c.087.062.195.15.37.293l.76-.929zm.939.69c.005.001-.048-.005-.223-.127-.17-.118-.389-.296-.716-.564l-.76.93c.312.254.572.468.791.62.214.148.46.292.747.33l.16-1.189zm.371-.153a.4.4 0 01-.371.153l-.16 1.19a1.6 1.6 0 001.485-.616l-.954-.727zm.175-1.152c-.042.42-.07.7-.107.904-.038.21-.072.252-.068.248l.954.727c.176-.23.248-.506.295-.762.047-.262.08-.598.12-.998l-1.194-.12zm.216-1.035a1.624 1.624 0 00-.151.486c-.026.154-.044.34-.065.549l1.194.119a7.98 7.98 0 01.054-.47.479.479 0 01.034-.134l-1.066-.55zm.834-.755a1.6 1.6 0 00-.834.755l1.066.55a.4.4 0 01.209-.189l-.441-1.116zm1.051-.112c-.21 0-.396 0-.552.01-.162.01-.33.035-.5.102l.442 1.116a.487.487 0 01.138-.02c.106-.008.246-.008.472-.008V1.4zm1.264 0h-1.264v1.2h1.264V1.4zm1.051.112a1.624 1.624 0 00-.499-.102c-.155-.01-.342-.01-.552-.01v1.2c.226 0 .366 0 .472.007.1.007.13.018.138.021l.441-1.116zm.834.755a1.6 1.6 0 00-.834-.755l-.44 1.116a.4.4 0 01.207.189l1.067-.55zM15.4 12a3.4 3.4 0 01-3.4 3.4v1.2a4.6 4.6 0 004.6-4.6h-1.2zM12 8.6a3.4 3.4 0 013.4 3.4h1.2A4.6 4.6 0 0012 7.4v1.2zM8.6 12A3.4 3.4 0 0112 8.6V7.4A4.6 4.6 0 007.4 12h1.2zm3.4 3.4A3.4 3.4 0 018.6 12H7.4a4.6 4.6 0 004.6 4.6v-1.2z"/></symbol><symbol viewBox="0 0 16 16" id="share" xmlns="http://www.w3.org/2000/svg"><path d="M15.83 5.598l-4.57-4.571a.55.55 0 00-.402-.17.549.549 0 00-.401.17.55.55 0 00-.17.402v2.285h-2c-4.244 0-6.849 1.2-7.813 3.599C.158 8.11 0 9.1 0 10.286c0 .988.378 2.33 1.134 4.027a21.982 21.982 0 00.214.482c.036.077.075.142.116.196.072.101.155.152.25.152.09 0 .16-.03.21-.09A.333.333 0 002 14.832c0-.054-.007-.133-.022-.237a1.85 1.85 0 01-.023-.21 14.93 14.93 0 01-.044-1.098 7.6 7.6 0 01.156-1.616c.104-.476.248-.888.433-1.237.184-.348.422-.648.714-.901s.606-.46.942-.621c.336-.16.732-.287 1.188-.38.455-.092.913-.156 1.375-.191.461-.036.983-.054 1.567-.054h2v2.286a.55.55 0 00.17.402.55.55 0 00.401.17.55.55 0 00.402-.17l4.571-4.572A.549.549 0 0016 6a.55.55 0 00-.17-.402z"/></symbol><symbol viewBox="0 0 16 14" id="share-2" xmlns="http://www.w3.org/2000/svg"><path d="M10.73.025a.576.576 0 00-.35.264l-.073.124-.014 1.227-.013 1.227-1.667.016c-1.698.016-1.971.03-2.786.146-1.9.27-3.341.889-4.3 1.848-.96.96-1.416 2.182-1.501 4.016-.046 1.018.076 1.771.482 2.963.137.399.418 1.127.451 1.164.014.016.73-.127.908-.181.033-.01.041-.094.045-.512.008-.829.101-1.466.3-2.062.169-.508.23-.614.652-1.145.309-.388.436-.525.598-.647.605-.456 1.249-.705 2.259-.872.855-.142 1.646-.186 3.366-.187l1.206-.001.001 1.207c0 1.109.004 1.215.049 1.314a.736.736 0 00.315.308c.1.038.319.029.43-.016.121-.051 4.719-4.632 4.823-4.806a.58.58 0 00.015-.527c-.067-.127-4.699-4.761-4.819-4.821a.638.638 0 00-.377-.047m2.343 3.355l1.754 1.753-1.774 1.774L11.28 8.68V6.427H9.86c-2.874.002-4.007.084-5.127.373-1.216.314-2.264 1.018-2.881 1.937-.26.386-.524.981-.657 1.479-.034.126-.066.199-.077.179-.036-.066-.105-.54-.122-.834a9.96 9.96 0 01.086-1.489c.174-1.171.567-1.976 1.275-2.616.991-.894 2.439-1.387 4.603-1.564.198-.017 1.251-.036 2.34-.044l1.98-.014V2.73c0-.607.009-1.103.02-1.103.011 0 .809.789 1.773 1.753" fill-rule="evenodd"/></symbol><symbol viewBox="0 0 16 16" id="speedometer" xmlns="http://www.w3.org/2000/svg"><g clip-path="url(#bca)"><path d="M16 9.465a7.924 7.924 0 01-1.615 4.818.625.625 0 11-.997-.754 6.684 6.684 0 001.362-4.064A6.745 6.745 0 008 2.72a6.744 6.744 0 00-6.75 6.746c0 1.48.471 2.886 1.362 4.064a.625.625 0 11-.997.754A7.925 7.925 0 010 9.465 7.994 7.994 0 018 1.47c4.422 0 8 3.577 8 7.996zm-4.04-3.764a.625.625 0 010 .884L9.923 8.622A2.188 2.188 0 018 11.847a2.188 2.188 0 01-2.186-2.186 2.189 2.189 0 013.225-1.923l2.037-2.037a.625.625 0 01.884 0zm-3.024 3.96a.937.937 0 00-1.872 0 .937.937 0 001.872 0z"/></g><defs><clipPath id="bca"><path d="M0 0h16v16H0z"/></clipPath></defs></symbol><symbol viewBox="0 0 16 16" id="square" xmlns="http://www.w3.org/2000/svg"><rect width="16" height="16" rx="3"/></symbol><symbol viewBox="0 0 16 10" id="tag" xmlns="http://www.w3.org/2000/svg"><path d="M2.427.028c-.446.024-.731.089-.956.217-.314.178-.538.493-.634.89C.768 1.417.758 2.144.775 5.6c.013 2.839.018 3.121.06 3.279.147.541.48.882.996 1.016.369.096 1.035.108 5.422.098 4.582-.01 4.329-.001 4.661-.179.177-.095.302-.206.477-.421.215-.263 2.344-3.481 2.459-3.716.251-.512.251-.842 0-1.354-.115-.235-2.244-3.453-2.459-3.716-.175-.215-.3-.326-.477-.421-.334-.179-.06-.169-4.807-.174a301.37 301.37 0 00-4.68.016m9.006 1.019a.87.87 0 01.198.187c.183.23 2.276 3.388 2.352 3.548.088.185.088.251 0 .436-.076.16-2.169 3.318-2.352 3.548-.207.259.292.233-4.591.242-2.632.004-4.427-.003-4.615-.019-.406-.034-.522-.08-.591-.236-.087-.198-.099-.629-.099-3.753s.012-3.555.099-3.753c.066-.148.187-.203.513-.233.124-.011 2.2-.019 4.613-.017 4.146.003 4.391.006 4.473.05m-1.51 2.755a1.211 1.211 0 00-.547.321c-.676.677-.365 1.836.558 2.076.303.079.669.035.918-.111.741-.434.859-1.428.237-1.997-.32-.293-.752-.4-1.166-.289" fill-rule="evenodd"/></symbol><symbol viewBox="0 0 16 16" id="thumbs-up" xmlns="http://www.w3.org/2000/svg"><path d="M7.511.839c-.308.126-.5.306-.639.599-.066.14-.086.224-.104.454-.031.38-.088.654-.183.887-.054.13-.412.692-1.086 1.705L4.493 5.995l-1.026.012c-.945.01-1.044.016-1.236.068-.677.185-1.236.746-1.406 1.412-.049.192-.052.317-.051 2.751 0 2.847-.005 2.749.186 3.136.261.527.732.911 1.291 1.053.189.047.298.053 1.046.053h.835l1.446.361c1.017.254 1.529.369 1.723.389.172.017.871.024 1.854.017 1.514-.01 1.587-.013 1.786-.068a2.096 2.096 0 001.081-.713c.178-.234 2.839-5.532 2.953-5.881.064-.195.074-.27.075-.558.003-.405-.028-.545-.198-.894a1.95 1.95 0 00-1.271-1.059c-.201-.056-.263-.058-1.893-.068l-1.685-.01-.009-1.778c-.01-1.731-.012-1.784-.068-1.987-.189-.68-.748-1.236-1.413-1.406a2.022 2.022 0 00-.524-.051c-.278.001-.344.009-.478.065m.631.92c.427.07.753.378.841.796.021.096.03.671.03 1.79v1.65l-.593.009c-.664.01-.715.023-.842.211-.055.081-.061.117-.054.31.007.17.022.234.065.293.121.163-.044.154 2.958.169L13.293 7l.16.064c.207.084.442.314.538.528.093.208.113.482.048.678-.025.079-.656 1.362-1.401 2.852l-1.354 2.708-.161.15a1.164 1.164 0 01-.315.211l-.155.062-1.639.008-1.639.008-1.314-.327-1.314-.328V7.401l1.277-1.92c.703-1.057 1.327-2.02 1.387-2.141.196-.394.322-.889.322-1.265 0-.176.036-.271.117-.31.073-.036.105-.037.292-.006M3.797 7.047c-.012.033-.029 1.5-.036 3.26l-.014 3.2-.467.007c-.534.009-.782-.021-.978-.116a1.206 1.206 0 01-.493-.537l-.062-.154-.008-2.334c-.005-1.425.002-2.398.018-2.5a1.01 1.01 0 01.763-.849c.084-.021.35-.034.716-.035l.584-.002-.023.06" fill-rule="evenodd"/></symbol><symbol viewBox="0 0 14 16" id="trash" xmlns="http://www.w3.org/2000/svg"><path d="M9.996 13.986a.5.5 0 00.5-.5V7.492a.5.5 0 00-1 0v5.994a.5.5 0 00.5.5zm2.997-11.988H9.996V.999A.999.999 0 008.997 0H6a.999.999 0 00-.999.999v.999H2.004a.999.999 0 00-.999.999v.999a1 1 0 001 .999v8.99c0 1.104.894 1.999 1.997 1.999h6.993a1.998 1.998 0 001.998-1.998V4.995a.999.999 0 001-1v-.998a.999.999 0 00-1-.999zM6 1.498A.5.5 0 016.5 1h1.998a.5.5 0 01.5.5v.499H6v-.5zm5.994 12.488a.999.999 0 01-.999.999H4.002a1 1 0 01-.999-1v-8.99h8.991v8.99zm.5-9.99h-9.99a.5.5 0 010-1h9.99a.5.5 0 010 1zM5 13.986a.5.5 0 00.5-.5V7.492a.5.5 0 00-1 0v5.994a.5.5 0 00.5.5zm2.498 0a.5.5 0 00.5-.5V7.492a.5.5 0 00-1 0v5.994a.5.5 0 00.5.5z"/></symbol><symbol viewBox="0 0 24 24" id="trash-2" xmlns="http://www.w3.org/2000/svg"><path d="M11.194 2.044c-1.1.107-1.807.437-2.084.974-.179.347-.059.757.322 1.106.377.344.71.379 1.128.116.281-.176.566-.22 1.44-.22.861 0 1.17.046 1.406.206.427.29.81.246 1.192-.139.489-.493.502-.928.041-1.403-.502-.517-1.943-.785-3.445-.64M3 7.493v1.493l.305.047c.726.113 1.319.604 1.586 1.313.088.233.089.252.113 3.794.017 2.483.039 3.681.074 3.96.218 1.733.883 2.486 2.437 2.759.705.124 1.647.149 4.965.13 3.265-.019 3.538-.03 4.236-.173 1.17-.24 1.86-.93 2.1-2.1.142-.695.154-.978.179-4.556.026-3.56.026-3.581.114-3.814.266-.709.86-1.2 1.586-1.313L21 8.986V6H3v1.493m6.947 2.62c.186.095.399.323.478.513.081.194.081 5.554 0 5.748-.146.351-.553.625-.925.625s-.779-.274-.925-.625c-.081-.194-.081-5.554 0-5.748.11-.264.369-.494.665-.591.159-.052.531-.011.707.078m5 0c.186.095.399.323.478.513.081.194.081 5.554 0 5.748-.146.351-.553.625-.925.625s-.779-.274-.925-.625c-.081-.194-.081-5.554 0-5.748.11-.264.369-.494.665-.591.159-.052.531-.011.707.078" fill-rule="evenodd"/></symbol><symbol viewBox="0 0 18 19" id="trash-3" xmlns="http://www.w3.org/2000/svg"><path d="M8.28.034c-.869.07-1.534.287-1.891.617-.471.435-.484.925-.038 1.393.4.419.775.483 1.201.204.29-.189.495-.22 1.448-.22s1.158.031 1.448.22c.426.279.801.215 1.201-.204.338-.355.414-.705.229-1.054-.177-.332-.52-.584-1.017-.747-.609-.2-1.65-.284-2.581-.209M.02 4.01C.009 4.021 0 4.472 0 5.012v.981l.638.011c.636.011.638.012.811.099.321.163.487.415.532.806.017.142.029 1.94.029 4.236.001 3.981.018 4.822.107 5.336.133.765.466 1.394.951 1.79.224.183.701.423 1.012.508.666.184 1.271.21 4.92.21 3.648 0 4.251-.026 4.92-.209a3.463 3.463 0 001.012-.51c.489-.397.818-1.021.95-1.802.091-.535.107-1.328.108-5.323 0-2.296.012-4.094.029-4.236.045-.391.22-.655.536-.81.167-.082.182-.084.808-.095l.638-.011-.008-.994-.008-.994-8.972-.008C4.078 3.993.031 3.999.02 4.01m14.14 1.997l-.066.293c-.064.283-.065.32-.086 4.83-.013 2.757-.034 4.639-.052 4.785-.104.813-.261.958-1.131 1.035-.437.039-7.213.039-7.65 0-.87-.077-1.027-.222-1.131-1.035-.018-.146-.039-2.028-.052-4.785-.021-4.51-.022-4.547-.086-4.83a34.353 34.353 0 01-.066-.293C3.84 6.003 6.162 6 9 6s5.16.003 5.16.007M6.678 9.033a.847.847 0 00-.626.58c-.054.177-.053 3.579.001 3.757a.82.82 0 00.41.504c.169.087.195.091.54.09.41-.002.555-.046.736-.228.257-.257.278-.449.265-2.432-.01-1.535-.012-1.573-.077-1.747a.809.809 0 00-.352-.429c-.225-.118-.62-.159-.897-.095m3.972.008c-.304.089-.474.241-.577.516-.065.174-.067.212-.077 1.747-.013 1.983.008 2.175.265 2.432.181.182.326.226.736.228.345.001.371-.003.54-.09a.82.82 0 00.41-.504c.054-.178.055-3.58.001-3.757a.774.774 0 00-.415-.496c-.167-.082-.232-.097-.471-.105a1.506 1.506 0 00-.412.029" fill-rule="evenodd"/></symbol><symbol viewBox="0 0 17 16" id="trash-circle" xmlns="http://www.w3.org/2000/svg"><path d="M8.103.017C6.565.117 5.165.59 3.981 1.41a8.842 8.842 0 00-1.718 1.593A8.122 8.122 0 00.576 6.927c-.038.258-.05.519-.05 1.077 0 .999.087 1.577.372 2.462a7.998 7.998 0 006.637 5.474c.428.053 1.502.053 1.93 0 1.002-.125 2.107-.485 2.937-.957a8.024 8.024 0 004.008-5.807c.054-.347.063-.519.063-1.172 0-.652-.009-.825-.063-1.172C15.85 3.25 13.039.507 9.478.071A11.387 11.387 0 008.103.017m.811 1.967c.73.091 1.306.427 1.512.882.127.28.029.504-.283.645-.241.11-.402.067-.585-.157a.912.912 0 00-.463-.311c-.127-.044-.237-.054-.595-.054s-.468.01-.595.054a.912.912 0 00-.463.311c-.183.224-.344.267-.585.157-.436-.198-.448-.581-.03-.991.439-.429 1.259-.64 2.087-.536m4.828 2.8v.507l-.181.018a1.412 1.412 0 00-.929.464 1.378 1.378 0 00-.342.535c-.06.163-.062.201-.079 2.22-.016 1.757-.025 2.091-.066 2.309-.09.476-.218.768-.486 1.105a2.34 2.34 0 01-1.385.854c-.574.122-2.977.122-3.553-.001-.827-.178-1.524-.791-1.772-1.561-.133-.412-.141-.544-.159-2.706-.016-1.885-.022-2.065-.069-2.196a1.533 1.533 0 00-.352-.559 1.418 1.418 0 00-.93-.464l-.181-.018V4.278h10.484v.506m-8.354.644c.172.255.297.561.368.904.018.086.038.971.051 2.225.022 2.234.022 2.23.173 2.532.094.188.346.45.547.569.32.188.429.199 1.973.199s1.653-.011 1.973-.199c.201-.119.453-.381.547-.569.151-.302.151-.297.172-2.546.022-2.29.019-2.25.195-2.69a2.62 2.62 0 01.199-.385l.113-.17H5.3l.088.13m1.861 1.813c.094.018.214.133.258.248.019.051.03.449.03 1.103 0 .962-.004 1.03-.056 1.139-.081.166-.197.226-.44.226s-.36-.06-.44-.226c-.053-.109-.056-.177-.056-1.148 0-1.133.003-1.156.175-1.282.126-.092.275-.109.529-.06m2.991.037a.542.542 0 01.141.126c.058.078.06.113.068 1.144.008 1.017.005 1.068-.049 1.181-.081.168-.197.228-.441.228-.236 0-.348-.054-.436-.212-.058-.101-.06-.142-.06-1.144 0-1.114.005-1.153.148-1.285.128-.118.452-.137.629-.038" fill-rule="evenodd"/></symbol><symbol viewBox="0 0 17 16" id="trash-undo-circle" xmlns="http://www.w3.org/2000/svg"><path d="M8.103.017C6.565.117 5.165.59 3.981 1.41a8.842 8.842 0 00-1.718 1.593A8.122 8.122 0 00.576 6.927c-.038.258-.05.519-.05 1.077 0 .999.087 1.577.372 2.462a7.998 7.998 0 006.637 5.474c.428.053 1.502.053 1.93 0 1.002-.125 2.107-.485 2.937-.957a8.024 8.024 0 004.008-5.807c.054-.347.063-.519.063-1.172 0-.652-.009-.825-.063-1.172C15.85 3.25 13.039.507 9.478.071A11.387 11.387 0 008.103.017m-.065 2.687a2.96 2.96 0 011.085.478c.561.377.906.905.912 1.396.002.239-.048.355-.202.458-.124.084-.387.087-.562.008-.137-.063-.231-.223-.232-.399-.002-.286-.508-.731-1.035-.91-.226-.077-.472-.077-.637.001-.227.106-.369.069-.551-.143-.197-.23-.204-.458-.021-.642.254-.253.749-.352 1.243-.247m-3.85.457c.021.006.031.034.024.062a2.067 2.067 0 00-.034.199l-.019.149.099-.058c.054-.032.199-.095.323-.14a2.322 2.322 0 012.476.583c.365.384.464.643.342.896a.44.44 0 01-.404.271c-.229.017-.336-.044-.519-.291a1.311 1.311 0 00-.572-.475c-.322-.15-.728-.146-1.096.013-.075.032-.126.067-.113.078a.951.951 0 00.164.07.96.96 0 01.165.072c.019.017-.295.89-.334.929-.009.01-1.715-.636-1.736-.657-.007-.008.245-1.762.262-1.819.006-.021.152-.01.472.037.254.037.48.074.5.081m9.185 3.367v.492l-.162.02a1.616 1.616 0 00-.579.202 1.602 1.602 0 00-.593.762c-.027.085-.041.588-.054 1.969-.02 2.006-.029 2.129-.182 2.518-.288.731-.977 1.333-1.709 1.494-.325.071-1.497.108-2.295.073-.747-.033-.979-.069-1.262-.193a2.545 2.545 0 01-1.34-1.374c-.153-.391-.162-.512-.182-2.518-.013-1.384-.027-1.884-.054-1.969a1.602 1.602 0 00-.593-.762 1.616 1.616 0 00-.579-.202l-.162-.02v-.985h9.746v.493m-7.664.712c.157.276.262.611.297.948.015.148.028.983.029 1.856.001.901.013 1.673.029 1.785.079.55.497 1.016 1.051 1.168.16.045.321.05 1.385.05s1.225-.005 1.385-.05a1.445 1.445 0 001.051-1.168c.016-.113.028-.883.028-1.793.001-.946.013-1.707.032-1.87.037-.336.136-.647.296-.927l.121-.212H5.587l.122.213m1.737 1.563c.04.03.099.09.131.133.057.076.059.112.059 1.103 0 .954-.004 1.031-.054 1.113-.088.147-.2.196-.447.196-.245 0-.333-.044-.434-.216-.054-.091-.057-.147-.057-1.088 0-.944.003-.996.057-1.091a.508.508 0 01.492-.217.512.512 0 01.253.067m2.669-.013c.075.038.15.105.184.163.054.095.057.147.057 1.091 0 .941-.003.997-.057 1.088-.101.172-.189.216-.434.216-.247 0-.359-.049-.447-.196-.049-.08-.055-.166-.063-1.009-.005-.506-.001-.975.009-1.042.047-.315.43-.473.751-.311" fill-rule="evenodd"/></symbol><symbol viewBox="0 0 20 20" id="user-circle" xmlns="http://www.w3.org/2000/svg"><path d="M9.2.534C7.073.736 5.118 1.591 3.617 2.976 1.944 4.519.943 6.406.596 8.67c-.098.638-.107 1.896-.018 2.53a9.262 9.262 0 00.922 3.017c.337.683.822 1.428 1.26 1.933.189.218.848.893.961.983l.35.284c.892.726 2.172 1.386 3.326 1.715.893.256 1.582.348 2.603.348.814 0 1.261-.042 1.937-.182a9.598 9.598 0 004.819-2.633c2.606-2.665 3.429-6.5 2.142-9.981a12.38 12.38 0 00-.398-.901 9.431 9.431 0 00-4.279-4.281c-1.022-.501-1.908-.773-3.004-.919C10.739.519 9.642.492 9.2.534m1.6 1.001c1.583.144 3.297.84 4.523 1.835a8.527 8.527 0 012.296 2.88c1.54 3.137 1.03 6.823-1.308 9.446l-.13.146-.177-.289c-.721-1.175-1.917-2.101-3.383-2.616-1.618-.57-3.624-.57-5.242 0-1.446.508-2.638 1.423-3.356 2.575l-.205.329-.13-.145a8.235 8.235 0 01-1.307-1.946 8.4 8.4 0 010-7.5A8.333 8.333 0 016.25 2.381c.907-.446 1.972-.757 2.883-.842a11.178 11.178 0 011.667-.004M9.483 4.548a3.477 3.477 0 00-1.951.984c-1.689 1.689-1.216 4.541.93 5.601a3.494 3.494 0 004.671-1.595 3.495 3.495 0 00-1.586-4.667 3.482 3.482 0 00-2.064-.323M10.717 5.6a2.576 2.576 0 011.688 1.7c.113.362.113 1.038 0 1.4a2.571 2.571 0 01-1.705 1.705c-.362.113-1.038.113-1.4 0A2.575 2.575 0 017.595 8.7c-.066-.21-.078-.321-.078-.7 0-.379.012-.49.078-.7a2.573 2.573 0 011.941-1.766c.257-.054.917-.017 1.181.066m.416 7.982c1.844.309 3.432 1.336 4.122 2.666l.155.299-.147.128c-.533.465-1.716 1.102-2.583 1.39a8.427 8.427 0 01-6.43-.446c-.553-.271-1.218-.687-1.513-.944l-.147-.128.155-.299c.386-.744 1.064-1.408 1.963-1.922.614-.351 1.575-.67 2.275-.756l.4-.051c.229-.031 1.45.013 1.75.063" fill-rule="evenodd"/></symbol><symbol xmlns="http://www.w3.org/2000/svg" enable-background="new 0 0 24 24" viewBox="0 0 24 24" id="bar-chart"><rect fill="none" height="24" width="24"/><g><path d="M7.5,21H2V9h5.5V21z M14.75,3h-5.5v18h5.5V3z M22,11h-5.5v10H22V11z"/></g></symbol><symbol xmlns="http://www.w3.org/2000/svg" viewBox="0 0 24 24" id="noti"><path d="M0 0h24v24H0z" fill="none"/><path d="M12 22c1.1 0 2-.9 2-2h-4c0 1.1.9 2 2 2zm6-6v-5c0-3.07-1.63-5.64-4.5-6.32V4c0-.83-.67-1.5-1.5-1.5s-1.5.67-1.5 1.5v.68C7.64 5.36 6 7.92 6 11v5l-2 2v1h16v-1l-2-2zm-2 1H8v-6c0-2.48 1.51-4.5 4-4.5s4 2.02 4 4.5v6z"/></symbol><symbol xmlns="http://www.w3.org/2000/svg" viewBox="0 0 24 24" id="question"><path d="M0 0h24v24H0z" fill="none"/><path d="M11 18h2v-2h-2v2zm1-16C6.48 2 2 6.48 2 12s4.48 10 10 10 10-4.48 10-10S17.52 2 12 2zm0 18c-4.41 0-8-3.59-8-8s3.59-8 8-8 8 3.59 8 8-3.59 8-8 8zm0-14c-2.21 0-4 1.79-4 4h2c0-1.1.9-2 2-2s2 .9 2 2c0 2-3 1.75-3 5h2c0-2.25 3-2.5 3-5 0-2.21-1.79-4-4-4z"/></symbol><symbol xmlns="http://www.w3.org/2000/svg" viewBox="0 0 24 24" id="logout"><path d="M0 0h24v24H0z" fill="none"/><path d="M17 7l-1.41 1.41L18.17 11H8v2h10.17l-2.58 2.58L17 17l5-5zM4 5h8V3H4c-1.1 0-2 .9-2 2v14c0 1.1.9 2 2 2h8v-2H4V5z"/></symbol><symbol xmlns="http://www.w3.org/2000/svg" viewBox="0 0 24 24" id="arrow-back"><path d="M0 0h24v24H0z" fill="none"/><path d="M20 11H7.83l5.59-5.59L12 4l-8 8 8 8 1.41-1.41L7.83 13H20v-2z"/></symbol><symbol xmlns="http://www.w3.org/2000/svg" 
viewBox="0 0 24 24" id="dot"><path d="M24 24H0V0h24v24z" fill="none"/><circle cx="12" cy="12" r="8"/></symbol><symbol xmlns="http://www.w3.org/2000/svg" viewBox="0 0 24 24" id="cloud"><path d="M0 0h24v24H0z" fill="none"/><path d="M19.35 10.04C18.67 6.59 15.64 4 12 4 9.11 4 6.6 5.64 5.35 8.04 2.34 8.36 0 10.91 0 14c0 3.31 2.69 6 6 6h13c2.76 0 5-2.24 5-5 0-2.64-2.05-4.78-4.65-4.96zM19 18H6c-2.21 0-4-1.79-4-4s1.79-4 4-4h.71C7.37 7.69 9.48 6 12 6c3.04 0 5.5 2.46 5.5 5.5v.5H19c1.66 0 3 1.34 3 3s-1.34 3-3 3z"/></symbol><symbol xmlns="http://www.w3.org/2000/svg" enable-background="new 0 0 24 24" viewBox="0 0 24 24" id="edit-avata"><rect fill="none" height="24" width="24"/><path d="M3,10h11v2H3V10z M3,8h11V6H3V8z M3,16h7v-2H3V16z M18.01,12.87l0.71-0.71c0.39-0.39,1.02-0.39,1.41,0l0.71,0.71 c0.39,0.39,0.39,1.02,0,1.41l-0.71,0.71L18.01,12.87z M17.3,13.58l-5.3,5.3V21h2.12l5.3-5.3L17.3,13.58z"/></symbol><symbol xmlns="http://www.w3.org/2000/svg" viewBox="0 0 24 24" id="photo-camera"><path d="M0 0h24v24H0z" fill="none"/><circle cx="12" cy="12" r="3.2"/><path d="M9 2L7.17 4H4c-1.1 0-2 .9-2 2v12c0 1.1.9 2 2 2h16c1.1 0 2-.9 2-2V6c0-1.1-.9-2-2-2h-3.17L15 2H9zm3 15c-2.76 0-5-2.24-5-5s2.24-5 5-5 5 2.24 5 5-2.24 5-5 5z"/></symbol><symbol xmlns="http://www.w3.org/2000/svg" viewBox="0 0 16 16" id="pencil-square"><path d="M15.502 1.94a.5.5 0 0 1 0 .706L14.459 3.69l-2-2L13.502.646a.5.5 0 0 1 .707 0l1.293 1.293zm-1.75 2.456-2-2L4.939 9.21a.5.5 0 0 0-.121.196l-.805 2.414a.25.25 0 0 0 .316.316l2.414-.805a.5.5 0 0 0 .196-.12l6.813-6.814z"/><path fill-rule="evenodd" d="M1 13.5A1.5 1.5 0 0 0 2.5 15h11a1.5 1.5 0 0 0 1.5-1.5v-6a.5.5 0 0 0-1 0v6a.5.5 0 0 1-.5.5h-11a.5.5 0 0 1-.5-.5v-11a.5.5 0 0 1 .5-.5H9a.5.5 0 0 0 0-1H2.5A1.5 1.5 0 0 0 1 2.5v11z"/></symbol><symbol xmlns="http://www.w3.org/2000/svg" viewBox="0 0 24 24" id="lock"><path d="M0 0h24v24H0z" fill="none"/><path d="M18 8h-1V6c0-2.76-2.24-5-5-5S7 3.24 7 6v2H6c-1.1 0-2 .9-2 2v10c0 1.1.9 2 2 2h12c1.1 0 2-.9 2-2V10c0-1.1-.9-2-2-2zm-6 9c-1.1 0-2-.9-2-2s.9-2 2-2 2 .9 2 2-.9 2-2 2zm3.1-9H8.9V6c0-1.71 1.39-3.1 3.1-3.1 1.71 0 3.1 1.39 3.1 3.1v2z"/></symbol><symbol viewBox="0 0 24 24" fill="none" xmlns="http://www.w3.org/2000/svg" id="paper">
<path d="M18 3.00001V3.00001C19.6569 3.00001 21 4.34315 21 6.00001L21 8.14286C21 8.47698 21 8.64405 20.9234 8.76602C20.8834 8.82962 20.8296 8.8834 20.766 8.92336C20.644 9 20.477 9 20.1429 9L15 9M18 3.00001V3.00001C16.3431 3.00001 15 4.34315 15 6.00001L15 9M18 3.00001L7 3.00001C5.11438 3.00001 4.17157 3.00001 3.58579 3.58579C3 4.17158 3 5.11439 3 7.00001L3 21L6 20L9 21L12 20L15 21L15 9" stroke="currentColor" stroke-width="2"/>
<path d="M7 7L11 7" stroke="currentColor" stroke-width="2" stroke-linecap="round"/>
<path d="M8 11H7" stroke="currentColor" stroke-width="2" stroke-linecap="round"/>
<path d="M7 15L10 15" stroke="currentColor" stroke-width="2" stroke-linecap="round"/>
</symbol><symbol viewBox="0 0 24 24" fill="none" xmlns="http://www.w3.org/2000/svg" id="reset">
<path d="M14 15L10 19L14 23" stroke="#CCD2E3" stroke-width="2"/>
<path d="M5.93782 15.5C5.16735 14.1655 4.85875 12.6141 5.05989 11.0863C5.26102 9.55856 5.96064 8.13986 7.05025 7.05025C8.13986 5.96064 9.55856 5.26102 11.0863 5.05989C12.6141 4.85875 14.1655 5.16735 15.5 5.93782C16.8345 6.70829 17.8775 7.89757 18.4672 9.32122C19.0568 10.7449 19.1603 12.3233 18.7615 13.8117C18.3627 15.3002 17.4838 16.6154 16.2613 17.5535C15.0388 18.4915 13.5409 19 12 19" stroke="#CCD2E3" stroke-width="2" stroke-linecap="round"/>
</symbol><symbol viewBox="0 0 24 24" fill="none" xmlns="http://www.w3.org/2000/svg" id="bell">
<path d="M6.44784 7.96942C6.76219 5.14032 9.15349 3 12 3V3C14.8465 3 17.2378 5.14032 17.5522 7.96942L17.804 10.2356C17.8072 10.2645 17.8088 10.279 17.8104 10.2933C17.9394 11.4169 18.3051 12.5005 18.8836 13.4725C18.8909 13.4849 18.8984 13.4973 18.9133 13.5222L19.4914 14.4856C20.0159 15.3599 20.2782 15.797 20.2216 16.1559C20.1839 16.3946 20.061 16.6117 19.8757 16.7668C19.5971 17 19.0873 17 18.0678 17H5.93223C4.91268 17 4.40291 17 4.12434 16.7668C3.93897 16.6117 3.81609 16.3946 3.77841 16.1559C3.72179 15.797 3.98407 15.3599 4.50862 14.4856L5.08665 13.5222C5.10161 13.4973 5.10909 13.4849 5.11644 13.4725C5.69488 12.5005 6.06064 11.4169 6.18959 10.2933C6.19123 10.279 6.19283 10.2645 6.19604 10.2356L6.44784 7.96942Z" stroke="#666666" stroke-width="1"/>
<path d="M9.10222 17.6647C9.27315 18.6215 9.64978 19.467 10.1737 20.0701C10.6976 20.6731 11.3396 21 12 21C12.6604 21 13.3024 20.6731 13.8263 20.0701C14.3502 19.467 14.7269 18.6215 14.8978 17.6647" stroke="#666666" stroke-width="1" stroke-linecap="round"/>
</symbol>
<symbol viewBox="0 0 24 24" fill="none" xmlns="http://www.w3.org/2000/svg" id="bell1">
<path d="M6.44784 7.96942C6.76219 5.14032 9.15349 3 12 3V3C14.8465 3 17.2378 5.14032 17.5522 7.96942L17.804 10.2356C17.8072 10.2645 17.8088 10.279 17.8104 10.2933C17.9394 11.4169 18.3051 12.5005 18.8836 13.4725C18.8909 13.4849 18.8984 13.4973 18.9133 13.5222L19.4914 14.4856C20.0159 15.3599 20.2782 15.797 20.2216 16.1559C20.1839 16.3946 20.061 16.6117 19.8757 16.7668C19.5971 17 19.0873 17 18.0678 17H5.93223C4.91268 17 4.40291 17 4.12434 16.7668C3.93897 16.6117 3.81609 16.3946 3.77841 16.1559C3.72179 15.797 3.98407 15.3599 4.50862 14.4856L5.08665 13.5222C5.10161 13.4973 5.10909 13.4849 5.11644 13.4725C5.69488 12.5005 6.06064 11.4169 6.18959 10.2933C6.19123 10.279 6.19283 10.2645 6.19604 10.2356L6.44784 7.96942Z" stroke="currentColor" stroke-width="1"/>
<path d="M9.10222 17.6647C9.27315 18.6215 9.64978 19.467 10.1737 20.0701C10.6976 20.6731 11.3396 21 12 21C12.6604 21 13.3024 20.6731 13.8263 20.0701C14.3502 19.467 14.7269 18.6215 14.8978 17.6647" stroke="currentColor" stroke-width="1" stroke-linecap="round"/>
</symbol><symbol viewBox="0 0 24 24" fill="none" xmlns="http://www.w3.org/2000/svg" id="user">
<path d="M19.7274 20.4471C19.2716 19.1713 18.2672 18.0439 16.8701 17.2399C15.4729 16.4358 13.7611 16 12 16C10.2389 16 8.52706 16.4358 7.12991 17.2399C5.73276 18.0439 4.72839 19.1713 4.27259 20.4471" stroke="currentColor" stroke-width="1" stroke-linecap="round"/>
<circle cx="12" cy="8" r="4" stroke="currentColor" stroke-width="1" stroke-linecap="round"/>
</symbol><symbol id="phone" viewBox="0 0 24 24" fill="none" xmlns="http://www.w3.org/2000/svg">
<path d="M17.7071 13.7071L20.3552 16.3552C20.7113 16.7113 20.7113 17.2887 20.3552 17.6448C18.43 19.57 15.3821 19.7866 13.204 18.153L11.6286 16.9714C9.88504 15.6638 8.33622 14.115 7.02857 12.3714L5.84701 10.796C4.21341 8.61788 4.43001 5.56999 6.35523 3.64477C6.71133 3.28867 7.28867 3.28867 7.64477 3.64477L10.2929 6.29289C10.6834 6.68342 10.6834 7.31658 10.2929 7.70711L9.27175 8.72825C9.10946 8.89054 9.06923 9.13846 9.17187 9.34373C10.3585 11.7171 12.2829 13.6415 14.6563 14.8281C14.8615 14.9308 15.1095 14.8905 15.2717 14.7283L16.2929 13.7071C16.6834 13.3166 17.3166 13.3166 17.7071 13.7071Z" stroke="currentColor" stroke-width="1"/>
</symbol>
<symbol viewBox="0 0 26 23" fill="none" xmlns="http://www.w3.org/2000/svg" id="premium">
<path d="M9.26699 7L12.8003 0H13.2003L16.7337 7H9.26699ZM12.0003 22.8L0.500326 9H12.0003V22.8ZM14.0003 22.8V9H25.5003L14.0003 22.8ZM18.9337 7L15.467 0H22.3337L25.8337 7H18.9337ZM0.166992 7L3.66699 0H10.5337L7.06699 7H0.166992Z" fill="white"/>
</symbol>
<symbol id="home" viewBox="0 0 24 26" fill="none" xmlns="http://www.w3.org/2000/svg">
<path d="M21.5618 10.2112L24 12.6494L22.3108 14.3387L12 4.0279L1.68924 14.3387L0 12.6494L12 0.649414L18.3745 7.02391V3.83666H21.5618V10.2112ZM12 6.29085L21.5618 15.8367V25.3506H2.43825V15.8367L12 6.29085ZM15.1873 23.757V15.7889H8.81275V23.757H15.1873Z" fill="currentColor"/>
</symbol>
<symbol id="chart" viewBox="0 0 26 26" fill="none" xmlns="http://www.w3.org/2000/svg">
<path d="M9.75 26H16.25V0H9.75V26ZM0 26H6.5V13H0V26ZM19.5 8.125V26H26V8.125H19.5Z" fill="white"/>
</symbol>
<symbol id="setting_new" viewBox="0 0 24 24" fill="none" xmlns="http://www.w3.org/2000/svg">
<circle cx="12" cy="12" r="12" fill="white"/>
<path d="M16.5021 12.3662C16.114 12.3662 15.7506 12.5218 15.4754 12.8061C15.2015 13.0904 15.0496 13.466 15.0496 13.867C15.0496 14.268 15.2015 14.6435 15.4754 14.9278C15.7506 15.2108 16.114 15.3677 16.5021 15.3677C16.8902 15.3677 17.2537 15.2108 17.5288 14.9278C17.8027 14.6435 17.9546 14.268 17.9546 13.867C17.9546 13.466 17.8027 13.0904 17.5288 12.8061C17.3944 12.6662 17.2345 12.5552 17.0582 12.4797C16.8819 12.4042 16.6929 12.3656 16.5021 12.3662ZM21.8538 15.5247L21.0049 14.7749C21.0451 14.5201 21.0659 14.2599 21.0659 14.0011C21.0659 13.7422 21.0451 13.4807 21.0049 13.2272L21.8538 12.4775C21.9179 12.4208 21.9638 12.3452 21.9854 12.2609C22.0069 12.1766 22.0031 12.0875 21.9745 12.0054L21.9628 11.9705C21.7292 11.2955 21.3791 10.6698 20.9296 10.1238L20.9062 10.0956C20.8516 10.0293 20.7789 9.98159 20.6976 9.95885C20.6162 9.93611 20.5301 9.93936 20.4506 9.96817L19.3967 10.3558C19.0073 10.0258 18.5737 9.76566 18.1038 9.5846L17.9001 8.44594C17.8847 8.36016 17.8444 8.28125 17.7846 8.21968C17.7248 8.15812 17.6483 8.11681 17.5652 8.10126L17.5301 8.09455C16.8552 7.96848 16.1439 7.96848 15.4689 8.09455L15.4339 8.10126C15.3508 8.11681 15.2743 8.15812 15.2144 8.21968C15.1546 8.28125 15.1143 8.36016 15.099 8.44594L14.8939 9.58996C14.4285 9.77246 13.9949 10.032 13.6102 10.3585L12.5484 9.96817C12.4689 9.93913 12.3828 9.93576 12.3014 9.95852C12.22 9.98128 12.1473 10.0291 12.0928 10.0956L12.0694 10.1238C11.6207 10.6704 11.2707 11.2959 11.0362 11.9705L11.0245 12.0054C10.9661 12.1731 11.0142 12.3608 11.1453 12.4775L12.0045 13.2353C11.9643 13.4874 11.9448 13.7449 11.9448 13.9997C11.9448 14.2573 11.9643 14.5148 12.0045 14.7642L11.1479 15.522C11.0837 15.5787 11.0378 15.6543 11.0163 15.7386C10.9947 15.8229 10.9985 15.912 11.0271 15.9941L11.0388 16.0289C11.2738 16.7036 11.6203 17.3272 12.072 17.8757L12.0954 17.9039C12.15 17.9702 12.2227 18.0179 12.3041 18.0406C12.3854 18.0634 12.4715 18.0601 12.551 18.0313L13.6128 17.641C13.9996 17.9696 14.4305 18.2298 14.8965 18.4095L15.1016 19.5536C15.1169 19.6393 15.1572 19.7182 15.217 19.7798C15.2768 19.8414 15.3534 19.8827 15.4365 19.8982L15.4715 19.9049C16.1531 20.0317 16.8511 20.0317 17.5327 19.9049L17.5678 19.8982C17.6508 19.8827 17.7274 19.8414 17.7872 19.7798C17.847 19.7182 17.8873 19.6393 17.9027 19.5536L18.1064 18.4149C18.5763 18.2325 19.0098 17.9736 19.3993 17.6437L20.4532 18.0313C20.5327 18.0604 20.6189 18.0637 20.7002 18.041C20.7816 18.0182 20.8544 17.9704 20.9088 17.9039L20.9322 17.8757C21.3839 17.3245 21.7305 16.7036 21.9654 16.0289L21.9771 15.9941C22.0329 15.8278 21.9849 15.6413 21.8538 15.5247ZM16.5021 16.2248C15.2418 16.2248 14.2202 15.1693 14.2202 13.867C14.2202 12.5647 15.2418 11.5092 16.5021 11.5092C17.7625 11.5092 18.784 12.5647 18.784 13.867C18.784 15.1693 17.7625 16.2248 16.5021 16.2248Z" fill="#087CCA"/>
<path d="M7.00154 8.27465C6.71928 8.27465 6.45496 8.39133 6.25483 8.60458C6.05565 8.81782 5.9452 9.09947 5.9452 9.40023C5.9452 9.70099 6.05565 9.98263 6.25483 10.1959C6.45496 10.4081 6.71928 10.5258 7.00154 10.5258C7.28379 10.5258 7.54811 10.4081 7.74824 10.1959C7.94742 9.98263 8.05787 9.70099 8.05787 9.40023C8.05787 9.09947 7.94742 8.81782 7.74824 8.60458C7.65049 8.49962 7.53415 8.4164 7.40596 8.35977C7.27777 8.30313 7.1403 8.27419 7.00154 8.27465ZM10.8937 10.6435L10.2763 10.0812C10.3055 9.89009 10.3206 9.69495 10.3206 9.50082C10.3206 9.30668 10.3055 9.11053 10.2763 8.92042L10.8937 8.35813C10.9403 8.31559 10.9737 8.25893 10.9893 8.19568C11.005 8.13244 11.0023 8.0656 10.9814 8.00406L10.9729 7.97791C10.803 7.47164 10.5485 7.00236 10.2215 6.59281L10.2045 6.57169C10.1648 6.52195 10.1119 6.4862 10.0528 6.46914C9.99362 6.45208 9.93101 6.45452 9.87319 6.47613L9.10666 6.76683C8.82346 6.51938 8.50816 6.32424 8.16643 6.18845L8.01822 5.33446C8.00704 5.27012 7.97775 5.21094 7.93425 5.16476C7.89075 5.11859 7.83509 5.08761 7.77467 5.07594L7.74918 5.07091C7.2583 4.97636 6.74099 4.97636 6.25011 5.07091L6.22462 5.07594C6.1642 5.08761 6.10855 5.11859 6.06504 5.16476C6.02154 5.21094 5.99225 5.27012 5.98107 5.33446L5.83192 6.19247C5.49343 6.32935 5.1781 6.52402 4.8983 6.76884L4.12611 6.47613C4.0683 6.45435 4.00565 6.45182 3.94646 6.46889C3.88728 6.48596 3.83437 6.52181 3.79476 6.57169L3.77777 6.59281C3.45142 7.0028 3.1969 7.47196 3.02635 7.97791L3.01785 8.00406C2.97537 8.1298 3.0103 8.27062 3.10564 8.35813L3.73057 8.92646C3.70131 9.11556 3.68715 9.30869 3.68715 9.49981C3.68715 9.69294 3.70131 9.88607 3.73057 10.0732L3.10753 10.6415C3.06089 10.684 3.02752 10.7407 3.01183 10.8039C2.99615 10.8672 2.99891 10.934 3.01974 10.9956L3.02824 11.0217C3.1991 11.5277 3.45115 11.9954 3.77966 12.4068L3.79665 12.4279C3.83635 12.4777 3.88926 12.5134 3.94841 12.5305C4.00756 12.5475 4.07017 12.5451 4.128 12.5235L4.90019 12.2308C5.1815 12.4772 5.49491 12.6724 5.83381 12.8071L5.98296 13.6652C5.99414 13.7295 6.02343 13.7887 6.06693 13.8349C6.11043 13.881 6.16609 13.912 6.22651 13.9237L6.252 13.9287C6.74771 14.0238 7.25536 14.0238 7.75107 13.9287L7.77656 13.9237C7.83698 13.912 7.89264 13.881 7.93614 13.8349C7.97964 13.7887 8.00893 13.7295 8.02011 13.6652L8.16832 12.8112C8.51005 12.6744 8.82535 12.4802 9.10855 12.2328L9.87507 12.5235C9.93288 12.5453 9.99554 12.5478 10.0547 12.5307C10.1139 12.5137 10.1668 12.4778 10.2064 12.4279L10.2234 12.4068C10.5519 11.9934 10.804 11.5277 10.9748 11.0217L10.9833 10.9956C11.0239 10.8708 10.989 10.731 10.8937 10.6435ZM7.00154 11.1686C6.08491 11.1686 5.34198 10.3769 5.34198 9.40023C5.34198 8.42352 6.08491 7.63189 7.00154 7.63189C7.91816 7.63189 8.66109 8.42352 8.66109 9.40023C8.66109 10.3769 7.91816 11.1686 7.00154 11.1686Z" fill="#A4ADBD"/>
</symbol>
<symbol id="subscription" viewBox="0 0 24 24" fill="none" xmlns="http://www.w3.org/2000/svg">
<path d="M14 15L10 19L14 23" stroke="currentColor"/>
<path d="M18.0622 8.5C18.7138 9.62862 19.0374 10.9167 18.9966 12.2193C18.9557 13.5219 18.5521 14.7872 17.8311 15.8728C17.11 16.9584 16.1003 17.8212 14.9155 18.364C13.7307 18.9067 12.4179 19.108 11.1249 18.9451" stroke="currentColor" stroke-linecap="round"/>
<path d="M10 9L14 5L10 1" stroke="currentColor"/>
<path d="M5.93782 15.5C5.27676 14.355 4.95347 13.0462 5.0054 11.7251C5.05733 10.404 5.48234 9.12457 6.23124 8.03498C6.98013 6.9454 8.02229 6.09019 9.23708 5.56834C10.4519 5.04649 11.7896 4.87934 13.0955 5.08625" stroke="currentColor" stroke-linecap="round"/>
</symbol>
<symbol id="up" viewBox="0 0 24 24" fill="none" xmlns="http://www.w3.org/2000/svg">
<path d="M18 15L12 9L6 15" stroke="currentColor" stroke-width="2"/>
</symbol>
<symbol id="down" viewBox="0 0 24 24" fill="none" xmlns="http://www.w3.org/2000/svg">
<path d="M18 9L12 15L6 9" stroke="currentColor" stroke-width="2"/>
</symbol>
<symbol id="attribute" viewBox="0 0 24 24" fill="none" xmlns="http://www.w3.org/2000/svg">
<path d="M9 6C9 6.39397 9.0776 6.78407 9.22836 7.14805C9.37913 7.51203 9.6001 7.84274 9.87868 8.12132C10.1573 8.3999 10.488 8.62087 10.852 8.77164C11.2159 8.9224 11.606 9 12 9C12.394 9 12.7841 8.9224 13.1481 8.77164C13.512 8.62087 13.8427 8.3999 14.1213 8.12132C14.3999 7.84274 14.6209 7.51203 14.7716 7.14805C14.9224 6.78407 15 6.39396 15 6C15 5.60603 14.9224 5.21593 14.7716 4.85195C14.6209 4.48797 14.3999 4.15725 14.1213 3.87868C13.8427 3.6001 13.512 3.37912 13.148 3.22836C12.7841 3.0776 12.394 3 12 3C11.606 3 11.2159 3.0776 10.8519 3.22836C10.488 3.37913 10.1573 3.6001 9.87868 3.87868C9.6001 4.15726 9.37912 4.48797 9.22836 4.85195C9.0776 5.21593 9 5.60604 9 6L9 6Z" stroke="currentColor" stroke-width="1"/>
<path d="M4.43781 13.9015C4.09663 14.0985 3.79758 14.3607 3.55775 14.6733C3.31792 14.9858 3.142 15.3426 3.04004 15.7231C2.93807 16.1037 2.91206 16.5006 2.96348 16.8912C3.0149 17.2818 3.14275 17.6584 3.33974 17.9996C3.53672 18.3408 3.79897 18.6398 4.11153 18.8796C4.42408 19.1195 4.78081 19.2954 5.16136 19.3974C5.5419 19.4993 5.9388 19.5253 6.32939 19.4739C6.71999 19.4225 7.09663 19.2946 7.43781 19.0977C7.779 18.9007 8.07804 18.6384 8.31787 18.3259C8.5577 18.0133 8.73362 17.6566 8.83559 17.276C8.93756 16.8955 8.96357 16.4986 8.91215 16.108C8.86072 15.7174 8.73287 15.3408 8.53589 14.9996C8.33891 14.6584 8.07665 14.3594 7.7641 14.1195C7.45154 13.8797 7.09481 13.7038 6.71427 13.6018C6.33373 13.4998 5.93683 13.4738 5.54623 13.5252C5.15564 13.5767 4.779 13.7045 4.43781 13.9015L4.43781 13.9015Z" stroke="currentColor" stroke-width="1"/>
<path d="M19.5622 13.9015C19.9034 14.0985 20.2024 14.3607 20.4422 14.6733C20.6821 14.9859 20.858 15.3426 20.96 15.7231C21.0619 16.1037 21.0879 16.5006 21.0365 16.8912C20.9851 17.2818 20.8572 17.6584 20.6603 17.9996C20.4633 18.3408 20.201 18.6398 19.8885 18.8796C19.5759 19.1195 19.2192 19.2954 18.8386 19.3974C18.4581 19.4993 18.0612 19.5253 17.6706 19.4739C17.28 19.4225 16.9034 19.2946 16.5622 19.0977C16.221 18.9007 15.922 18.6384 15.6821 18.3259C15.4423 18.0133 15.2664 17.6566 15.1644 17.276C15.0624 16.8955 15.0364 16.4986 15.0879 16.108C15.1393 15.7174 15.2671 15.3408 15.4641 14.9996C15.6611 14.6584 15.9234 14.3594 16.2359 14.1195C16.5485 13.8797 16.9052 13.7038 17.2857 13.6018C17.6663 13.4998 18.0632 13.4738 18.4538 13.5252C18.8444 13.5767 19.221 13.7045 19.5622 13.9015L19.5622 13.9015Z" stroke="currentColor" stroke-width="1"/>
<path fill-rule="evenodd" clip-rule="evenodd" d="M9.06962 6.64319C9.02341 6.43253 8.99993 6.217 8.99993 6.0003C8.99993 5.60634 9.07753 5.21623 9.22829 4.85225C9.30001 4.67912 9.3876 4.51352 9.48973 4.35747C9.17327 4.44938 8.86149 4.55879 8.55584 4.68539C7.46391 5.13768 6.47176 5.80062 5.63603 6.63634C4.80031 7.47207 4.13737 8.46422 3.68508 9.55616C3.23279 10.6481 3 11.8184 3 13.0003C3 13.7255 3.08765 14.4464 3.25988 15.1475C3.34396 14.981 3.44359 14.8223 3.55768 14.6736C3.79752 14.361 4.09656 14.0988 4.43774 13.9018C4.62541 13.7935 4.82381 13.706 5.02936 13.6407C5.00983 13.4282 5 13.2145 5 13.0003C5 12.0811 5.18106 11.1708 5.53284 10.3215C5.88462 9.47224 6.40024 8.70057 7.05025 8.05056C7.63547 7.46533 8.31932 6.98905 9.06962 6.64319ZM14.9303 6.64313C15.6806 6.989 16.3645 7.4653 16.9497 8.05055C17.5998 8.70056 18.1154 9.47224 18.4672 10.3215C18.8189 11.1708 19 12.081 19 13.0003C19 13.2145 18.9902 13.4282 18.9706 13.6408C19.1761 13.7061 19.3745 13.7935 19.5621 13.9018C19.9033 14.0988 20.2023 14.361 20.4422 14.6736C20.5563 14.8223 20.656 14.9811 20.7401 15.1476C20.9123 14.4465 21 13.7256 21 13.0003C21 11.8184 20.7672 10.6481 20.3149 9.55615C19.8626 8.46422 19.1997 7.47206 18.364 6.63634C17.5282 5.80061 16.5361 5.13768 15.4441 4.68538C15.1385 4.55876 14.8266 4.44935 14.5101 4.35742C14.6122 4.51348 14.6999 4.6791 14.7716 4.85225C14.9223 5.21623 14.9999 5.60633 14.9999 6.0003C14.9999 6.21698 14.9765 6.43249 14.9303 6.64313ZM18.2303 19.4952C18.0439 19.5056 17.8565 19.4987 17.6705 19.4742C17.2799 19.4228 16.9033 19.2949 16.5621 19.098C16.3746 18.9897 16.1998 18.8617 16.0405 18.7164C15.6169 19.0159 15.1603 19.268 14.6788 19.4675C13.8295 19.8192 12.9193 20.0003 12 20.0003C11.0807 20.0003 10.1705 19.8192 9.32122 19.4675C8.83965 19.268 8.38304 19.0158 7.95941 18.7164C7.80015 18.8616 7.62531 18.9897 7.43775 19.098C7.09656 19.2949 6.71992 19.4228 6.32932 19.4742C6.1434 19.4987 5.95604 19.5056 5.7697 19.4952C6.5768 20.2694 7.52156 20.8868 8.55585 21.3152C9.64778 21.7675 10.8181 22.0003 12 22.0003C13.1819 22.0003 14.3522 21.7675 15.4442 21.3152C16.4784 20.8868 17.4232 20.2694 18.2303 19.4952Z" fill="currentColor"/>
</symbol>
<symbol id="recover" viewBox="0 0 24 24" fill="none" xmlns="http://www.w3.org/2000/svg">
<path d="M14 15L10 19L14 23" stroke="currentColor" stroke-width="2"/>
<path d="M5.93782 15.5C5.16735 14.1655 4.85875 12.6141 5.05989 11.0863C5.26102 9.55856 5.96064 8.13986 7.05025 7.05025C8.13986 5.96064 9.55856 5.26102 11.0863 5.05989C12.6141 4.85875 14.1655 5.16735 15.5 5.93782C16.8345 6.70829 17.8775 7.89757 18.4672 9.32122C19.0568 10.7449 19.1603 12.3233 18.7615 13.8117C18.3627 15.3002 17.4838 16.6154 16.2613 17.5535C15.0388 18.4915 13.5409 19 12 19" stroke="currentColor" stroke-width="2" stroke-linecap="round"/>
</symbol>
<symbol id="premium1" viewBox="0 0 24 24" fill="none" xmlns="http://www.w3.org/2000/svg">
<path d="M12 20L4.6797 10.8496C4.34718 10.434 4.18092 10.2262 4.13625 9.9757C4.09159 9.72524 4.17575 9.47276 4.34407 8.96778L5.0883 6.73509C5.52832 5.41505 5.74832 4.75503 6.2721 4.37752C6.79587 4 7.49159 4 8.88304 4H15.117C16.5084 4 17.2041 4 17.7279 4.37752C18.2517 4.75503 18.4717 5.41505 18.9117 6.73509L19.6559 8.96778C19.8243 9.47276 19.9084 9.72524 19.8637 9.9757C19.8191 10.2262 19.6528 10.434 19.3203 10.8496L12 20Z"  fill="#fff" fill-opacity="0.25"/>
<path d="M12 20L4.6797 10.8496C4.34718 10.434 4.18092 10.2262 4.13625 9.9757C4.09159 9.72524 4.17575 9.47276 4.34407 8.96778L5.0883 6.73509C5.52832 5.41505 5.74832 4.75503 6.2721 4.37752C6.79587 4 7.49159 4 8.88304 4H15.117C16.5084 4 17.2041 4 17.7279 4.37752C18.2517 4.75503 18.4717 5.41505 18.9117 6.73509L19.6559 8.96778C19.8243 9.47276 19.9084 9.72524 19.8637 9.9757C19.8191 10.2262 19.6528 10.434 19.3203 10.8496L12 20ZM12 20L15.5 9M12 20L8.5 9M19.5 10L15.5 9M15.5 9L14 5M15.5 9H8.5M10 5L8.5 9M8.5 9L4.5 10" stroke="currentColor" stroke-width="1.4" stroke-linecap="round"/>
</symbol>
<symbol id="tag1" viewBox="0 0 24 24" fill="none" xmlns="http://www.w3.org/2000/svg">
<path fill-rule="evenodd" clip-rule="evenodd" d="M3.29289 6.29289C3 6.58579 3 7.05719 3 8V16C3 16.9428 3 17.4142 3.29289 17.7071C3.58579 18 4.05719 18 5 18H14.8593C15.9072 18 16.4312 18 16.8733 17.7633C17.3155 17.5267 17.6062 17.0907 18.1875 16.2188L19.5208 14.2188C20.2378 13.1433 20.5963 12.6056 20.5963 12C20.5963 11.3944 20.2378 10.8567 19.5208 9.7812L18.1875 7.7812C17.6062 6.90927 17.3155 6.4733 16.8733 6.23665C16.4312 6 15.9072 6 14.8593 6H5C4.05719 6 3.58579 6 3.29289 6.29289ZM15 14C16.1046 14 17 13.1046 17 12C17 10.8954 16.1046 10 15 10C13.8954 10 13 10.8954 13 12C13 13.1046 13.8954 14 15 14Z" fill="currentColor"/>
</symbol>
<symbol viewBox="0 0 10 8" id="icon-dropdown-menu" fill="none" xmlns="http://www.w3.org/2000/svg">
<path d="M10 2.08954L8.82082 0.9104L5 4.73122L1.17918 0.9104L-5.15419e-08 2.08954L5 7.08954L10 2.08954Z" fill="white"/>
</symbol>
<symbol id="logout1" viewBox="0 0 24 24" fill="none" xmlns="http://www.w3.org/2000/svg">
<path d="M7 7.13193V6.61204C7 4.46614 7 3.3932 7.6896 2.79511C8.37919 2.19703 9.44136 2.34877 11.5657 2.65224L15.8485 3.26408C18.3047 3.61495 19.5327 3.79039 20.2664 4.63628C21 5.48217 21 6.72271 21 9.20377V14.7962C21 17.2773 21 18.5178 20.2664 19.3637C19.5327 20.2096 18.3047 20.385 15.8485 20.7359L11.5657 21.3478C9.44136 21.6512 8.37919 21.803 7.6896 21.2049C7 20.6068 7 19.5339 7 17.388V17.066" stroke="currentColor"/>
<path d="M16 12L16.3904 11.6877L16.6403 12L16.3904 12.3123L16 12ZM4 12.5C3.72386 12.5 3.5 12.2761 3.5 12C3.5 11.7239 3.72386 11.5 4 11.5V12.5ZM12.3904 6.68765L16.3904 11.6877L15.6096 12.3123L11.6096 7.31235L12.3904 6.68765ZM16.3904 12.3123L12.3904 17.3123L11.6096 16.6877L15.6096 11.6877L16.3904 12.3123ZM16 12.5H4V11.5H16V12.5Z" fill="currentColor"/>
</symbol>
<symbol id="sentiment_default" viewBox="0 0 25 24" fill="none" xmlns="http://www.w3.org/2000/svg">
<rect x="0.5" width="24" height="24" rx="12" fill="#A4ADBD"/>
<g clip-path="url(#clip0_249_8327)">
<path d="M12.5 3.75C10.8683 3.75 9.27325 4.23385 7.91655 5.14038C6.55984 6.0469 5.50242 7.33537 4.878 8.84286C4.25357 10.3503 4.0902 12.0091 4.40853 13.6095C4.72685 15.2098 5.51259 16.6798 6.66637 17.8336C7.82015 18.9874 9.29016 19.7731 10.8905 20.0915C12.4908 20.4098 14.1496 20.2464 15.6571 19.622C17.1646 18.9976 18.4531 17.9402 19.3596 16.5834C20.2661 15.2267 20.75 13.6317 20.75 12C20.75 9.81196 19.8808 7.71354 18.3336 6.16637C16.7865 4.61919 14.688 3.75 12.5 3.75Z" fill="#A4ADBD"/>
<path d="M8.14454 10.0971C8.84551 10.0971 9.41377 9.5288 9.41377 8.82782C9.41377 8.12685 8.84551 7.55859 8.14454 7.55859C7.44356 7.55859 6.87531 8.12685 6.87531 8.82782C6.87531 9.5288 7.44356 10.0971 8.14454 10.0971Z" fill="white"/>
<path d="M17.1445 10.0971C17.8455 10.0971 18.4138 9.5288 18.4138 8.82782C18.4138 8.12685 17.8455 7.55859 17.1445 7.55859C16.4436 7.55859 15.8753 8.12685 15.8753 8.82782C15.8753 9.5288 16.4436 10.0971 17.1445 10.0971Z" fill="white"/>
<rect x="9.50037" y="14.25" width="6.75" height="1.5" rx="0.75" fill="white"/>
</g>
<defs>
<clipPath id="clip0_249_8327">
<rect width="16.5" height="16.5" fill="white" transform="translate(4.25 3.75)"/>
</clipPath>
</defs>
</symbol>
<symbol id="upload" viewBox="0 0 22 23" fill="none" xmlns="http://www.w3.org/2000/svg">
<path d="M10.9998 15.1671C10.7401 15.1671 10.5223 15.0791 10.3463 14.9031C10.1703 14.7271 10.0826 14.5095 10.0832 14.2504V7.67331L8.34151 9.39206C8.17345 9.56011 7.96323 9.64811 7.71084 9.65606C7.45845 9.664 7.2409 9.576 7.05817 9.39206C6.89012 9.224 6.80609 9.01011 6.80609 8.75039C6.80609 8.49067 6.89012 8.27678 7.05817 8.10872L10.3582 4.80872C10.4498 4.71706 10.5491 4.65228 10.6561 4.61439C10.763 4.5765 10.8776 4.55725 10.9998 4.55664C11.1221 4.55664 11.2366 4.57589 11.3436 4.61439C11.4505 4.65289 11.5498 4.71767 11.6415 4.80872L14.9415 8.10872C15.1096 8.27678 15.1976 8.487 15.2055 8.73939C15.2135 8.99178 15.1255 9.20933 14.9415 9.39206C14.7735 9.56011 14.5596 9.64414 14.2998 9.64414C14.0401 9.64414 13.8262 9.56011 13.6582 9.39206L11.9165 7.67331V14.2504C11.9165 14.5101 11.8288 14.728 11.6534 14.904C11.478 15.08 11.2602 15.1677 10.9998 15.1671ZM7.33317 18.8337C7.07345 18.8337 6.85559 18.7457 6.67959 18.5697C6.50359 18.3937 6.4159 18.1762 6.41651 17.9171C6.41651 17.6573 6.50451 17.4395 6.68051 17.2635C6.85651 17.0875 7.07406 16.9998 7.33317 17.0004H14.6665C14.9262 17.0004 15.1441 17.0884 15.3201 17.2644C15.4961 17.4404 15.5838 17.6579 15.5832 17.9171C15.5832 18.1768 15.4952 18.3946 15.3192 18.5706C15.1432 18.7466 14.9256 18.8343 14.6665 18.8337H7.33317Z" fill="white"/>
</symbol>
<symbol id="eye_off" viewBox="0 0 14 14" fill="none" xmlns="http://www.w3.org/2000/svg">
<path d="M13.3566 6.01446C12.9421 5.43071 12.479 4.88294 11.9725 4.37698L9.73897 6.61047C9.7605 6.73682 9.77331 6.86451 9.7773 6.99262C9.7773 7.7292 9.48469 8.43561 8.96385 8.95645C8.44301 9.47729 7.7366 9.76989 7.00002 9.76989C6.87191 9.76591 6.74422 9.7531 6.61787 9.73157L4.80875 11.5407C5.50231 11.834 6.24701 11.9872 7.00002 11.9917C10.1706 11.9917 12.5018 9.18 13.3572 7.97022C13.5587 7.68391 13.6667 7.34234 13.6666 6.99225C13.6665 6.64216 13.5583 6.30066 13.3566 6.01446Z" fill="currentColor"/>
<path d="M7.00002 1.99352C3.82948 1.99352 1.50102 4.80524 0.642839 6.01502C0.441416 6.30122 0.333313 6.64265 0.333313 6.99262C0.333313 7.34259 0.441416 7.68402 0.642839 7.97022C1.3758 9.01502 2.27319 9.93417 3.30014 10.6919L5.03538 8.95671C4.77745 8.69882 4.57284 8.39265 4.43324 8.05568C4.29364 7.71872 4.22177 7.35755 4.22174 6.99282C4.22169 6.25619 4.51426 5.54972 5.0351 5.02881C5.55593 4.5079 6.26237 4.21523 6.99899 4.21517C7.73561 4.21512 8.44209 4.50769 8.963 5.02853L5.03538 8.95671L10.7016 3.29107C9.63462 2.48052 8.33953 2.02654 7.00002 1.99352Z" fill="currentColor"/>
<path d="M0.890016 13.6581C0.780175 13.6581 0.672806 13.6255 0.581484 13.5644C0.490162 13.5034 0.418986 13.4167 0.376955 13.3152C0.334923 13.2137 0.323924 13.102 0.345346 12.9943C0.366769 12.8866 0.419652 12.7876 0.49731 12.7099L12.7173 0.489907C12.8221 0.388727 12.9624 0.33274 13.108 0.334005C13.2537 0.335271 13.393 0.393688 13.496 0.496673C13.599 0.599659 13.6574 0.738974 13.6586 0.884613C13.6599 1.03025 13.6039 1.17056 13.5027 1.27532L1.28272 13.4953C1.17858 13.5995 1.03732 13.658 0.890016 13.6581Z" fill="currentColor"/>
</symbol>
<symbol id="success" viewBox="0 0 24 24" xmlns="http://www.w3.org/2000/svg" fill="#fff">
<circle cx="12" cy="12" r="9" stroke="#2abb42b0" stroke-width="2"/>
<path d="M8 12L11 15L16 9" stroke="#2abb42b0" stroke-width="2"/>
</symbol>
<symbol id="arrow-left" viewBox="0 0 24 24" fill="none" xmlns="http://www.w3.org/2000/svg">
<path d="M10 12L9.29289 11.2929L8.58579 12L9.29289 12.7071L10 12ZM20 13C20.5523 13 21 12.5523 21 12C21 11.4477 20.5523 11 20 11V13ZM15.2929 5.29289L9.29289 11.2929L10.7071 12.7071L16.7071 6.70711L15.2929 5.29289ZM9.29289 12.7071L15.2929 18.7071L16.7071 17.2929L10.7071 11.2929L9.29289 12.7071ZM10 13H20V11H10V13Z" fill="currentColor"/>
<path d="M4 5L4 19" stroke="currentColor" stroke-width="2"/>
</symbol>
<symbol id="copy" viewBox="0 0 24 24" fill="none" xmlns="http://www.w3.org/2000/svg">
<path d="M14 7V7C14 6.06812 14 5.60218 13.8478 5.23463C13.6448 4.74458 13.2554 4.35523 12.7654 4.15224C12.3978 4 11.9319 4 11 4H8C6.11438 4 5.17157 4 4.58579 4.58579C4 5.17157 4 6.11438 4 8V11C4 11.9319 4 12.3978 4.15224 12.7654C4.35523 13.2554 4.74458 13.6448 5.23463 13.8478C5.60218 14 6.06812 14 7 14V14" stroke="currentColor" stroke-width="2"/>
<rect x="10" y="10" width="10" height="10" rx="2" stroke="currentColor" stroke-width="2"/>
</symbol>
<symbol id="add" viewBox="0 0 24 24" fill="none" xmlns="http://www.w3.org/2000/svg">
<path d="M12 6L12 18" stroke="currentColor" stroke-width="2" stroke-linecap="round"/>
<path d="M18 12L6 12" stroke="currentColor" stroke-width="2" stroke-linecap="round"/>
</symbol>
<symbol id="sensitive" viewBox="0 0 24 24" fill="none" xmlns="http://www.w3.org/2000/svg">
<path d="M6.8874 5.17157C7.46546 4.59351 7.75449 4.30448 8.12203 4.15224C8.48957 4 8.89832 4 9.71582 4H14.326C15.1517 4 15.5646 4 15.9351 4.15505C16.3056 4.31011 16.5954 4.60419 17.175 5.19234L18.849 6.89105C19.4171 7.46745 19.7011 7.75566 19.8505 8.12024C20 8.48482 20 8.88945 20 9.69871V14.3431C20 15.1606 20 15.5694 19.8478 15.9369C19.6955 16.3045 19.4065 16.5935 18.8284 17.1716L17.1716 18.8284C16.5935 19.4065 16.3045 19.6955 15.9369 19.8478C15.5694 20 15.1606 20 14.3431 20H9.69871C8.88945 20 8.48482 20 8.12024 19.8505C7.75566 19.7011 7.46745 19.4171 6.89105 18.849L5.19235 17.175C4.60419 16.5954 4.31011 16.3056 4.15505 15.9351C4 15.5646 4 15.1517 4 14.326V9.71583C4 8.89832 4 8.48957 4.15224 8.12203C4.30448 7.75449 4.59351 7.46546 5.17157 6.8874L6.8874 5.17157Z" stroke="currentColor" stroke-width="2"/>
<path d="M8 11L8.42229 11.2111C10.6745 12.3373 13.3255 12.3373 15.5777 11.2111L16 11" stroke="currentColor" stroke-width="2" stroke-linecap="round"/>
<path d="M12 12.5V14" stroke="currentColor" stroke-width="2" stroke-linecap="round"/>
<path d="M9 12L8.5 13" stroke="currentColor" stroke-width="2" stroke-linecap="round"/>
<path d="M15 12L15.5 13" stroke="currentColor" stroke-width="2" stroke-linecap="round"/>
</symbol>
<symbol id="share_new" viewBox="0 0 32 32" fill="none" xmlns="http://www.w3.org/2000/svg">
<rect width="32" height="32" rx="16" fill="#2790FF"/>
<path d="M11.1848 8.66709H14.3601C14.5343 8.66715 14.7019 8.73332 14.8292 8.85224C14.9565 8.97115 15.0339 9.13395 15.0458 9.30773C15.0577 9.48152 15.0031 9.65333 14.8932 9.78845C14.7833 9.92358 14.6261 10.0119 14.4536 10.0357L14.3601 10.0421H11.1848C10.6623 10.042 10.1593 10.2402 9.77728 10.5967C9.39529 10.9531 9.16283 11.4413 9.12684 11.9625L9.12225 12.1046V20.8129C9.12242 21.3354 9.32086 21.8383 9.67749 22.2201C10.0341 22.6019 10.5224 22.8342 11.0436 22.8699L11.1848 22.8754H19.8931C20.4157 22.8755 20.9189 22.6772 21.3009 22.3205C21.6829 21.9639 21.9152 21.4755 21.951 20.9541L21.9556 20.8129V20.3564C21.9538 20.181 22.0192 20.0115 22.1383 19.8827C22.2574 19.7539 22.4212 19.6755 22.5962 19.6635C22.7713 19.6516 22.9442 19.707 23.0797 19.8184C23.2152 19.9299 23.303 20.0889 23.3251 20.2629L23.3306 20.3564V20.8129C23.3304 21.6928 22.9929 22.5391 22.3875 23.1775C21.7822 23.816 20.955 24.198 20.0764 24.2449L19.8931 24.2504H11.1848C10.3046 24.2505 9.45796 23.913 8.81928 23.3074C8.1806 22.7018 7.79854 21.8743 7.75184 20.9953L7.74725 20.812V12.1037C7.74741 11.2238 8.08493 10.3776 8.69031 9.73909C9.29569 9.10063 10.1228 8.7186 11.0014 8.67168L11.1848 8.66709ZM18.2917 10.9991V8.43793C18.2916 8.31147 18.3264 8.18744 18.3922 8.07948C18.4581 7.97152 18.5525 7.88382 18.6649 7.82602C18.7774 7.76822 18.9036 7.74256 19.0298 7.75186C19.1559 7.76117 19.277 7.80508 19.3798 7.87876L19.4549 7.94109L24.9494 13.2119C25.2061 13.4585 25.2299 13.8536 25.02 14.1268L24.9494 14.2047L19.4549 19.4773C19.3637 19.565 19.25 19.6257 19.1265 19.6529C19.0029 19.6801 18.8743 19.6727 18.7547 19.6315C18.6351 19.5902 18.5291 19.5168 18.4486 19.4193C18.368 19.3217 18.316 19.2038 18.2981 19.0786L18.2917 18.9805V16.4129L17.9974 16.4065C15.5609 16.3992 13.4783 17.4002 11.7045 19.4333C11.2498 19.9531 10.3983 19.5534 10.5073 18.8714C11.2654 14.1598 13.8073 11.4978 18.0148 11.0266L18.2917 10.9991Z" fill="white"/>
</symbol>
<symbol id="comment_new" viewBox="0 0 32 32" fill="none" xmlns="http://www.w3.org/2000/svg">
<rect width="32" height="32" rx="16" fill="#25B7D3"/>
<path fill-rule="evenodd" clip-rule="evenodd" d="M16 7C11.0294 7 7 11.0294 7 16C7 20.9706 11.0294 25 16 25H20.5C21.8978 25 22.5967 25 23.1481 24.7716C23.8831 24.4672 24.4672 23.8831 24.7716 23.1481C25 22.5967 25 21.8978 25 20.5V16C25 11.0294 20.9706 7 16 7ZM12 15C12 14.4477 12.4477 14 13 14H19C19.5523 14 20 14.4477 20 15C20 15.5523 19.5523 16 19 16H13C12.4477 16 12 15.5523 12 15ZM15 19C15 18.4477 15.4477 18 16 18H19C19.5523 18 20 18.4477 20 19C20 19.5523 19.5523 20 19 20H16C15.4477 20 15 19.5523 15 19Z" fill="white"/>
</symbol>
<symbol fill="none" viewBox="0 0 36 32" id="previews" xmlns="http://www.w3.org/2000/svg"><rect x="2" width="32" height="32" rx="16" fill="#EE6B0C"/><circle cx="18" cy="16" r="4" fill="#fff"/><path d="M27 16s-1-8-9-8-9 8-9 8" stroke="#fff" stroke-width="2"/></symbol>
</svg>